<svg id="Layer_1" data-name="Layer 1" xmlns="http://www.w3.org/2000/svg" viewBox="0 0 425.2 176.39">
  <title>cat-icon--strong</title>
  <path d="M390.51,142.72a49.37,49.37,0,0,1,14.41-14.59c3.15-2.09,5.15-2.09,6.83,1.75,2.68,6.11,4.78,12.23,2.87,19a7.08,7.08,0,0,0,1.33,6.58c1.77,2.37,3.35,4.89,5,7.36,4,6,5.64,12.41,2.93,19.5a17.14,17.14,0,0,0-.64,9.66,26.53,26.53,0,0,1,0,9.32c-.81,5.09-3.45,8.65-8.57,10a18.29,18.29,0,0,0-10.18,6.24,4.14,4.14,0,0,1-2.71,1.7c-3.74.5-13.26-7.94-13.24-11.76,0-.62,0-1.25,0-1.87.21-11.28-.46-12.38-10.81-16.9a14.12,14.12,0,0,1-5.75-3.9c-2.05-2.58-4.55-2.35-7.16-1.25s-4.4,2.83-4,6.07a200.88,200.88,0,0,1,1.11,22.88,5,5,0,0,0,.74,2.65c9.83,14.15,13.52,30.79,18.42,46.82,3.74,12.22,10.78,18.87,23.42,19.76a55.55,55.55,0,0,1,6,1c5.66,1.06,9,4.62,10.72,10,2.08,6.62,1,8-5.85,8.08s-13.74,0-20.6.05c-2.78,0-5.14-.5-7.22-2.55-3.06-3-7.06-4.56-10.9-6.26-4.22-1.87-8.14-4.22-10.65-8.12-3.52-5.46-8.29-9.7-12.77-14.25-9-9.13-18.25-17.93-26.73-27.54-6.1-6.91-10.1-14.59-10-24,0-3-.74-4.18-3.77-2.69a7.75,7.75,0,0,1-3.13.93c-8.92.15-13.29,5.48-16.45,13.17-2.78,6.75-6.74,13-10.09,19.53a30.34,30.34,0,0,0-3.66,13.89c0,7.41,1.75,10.08,8.74,12.57,4.33,1.55,8.49,3.17,10.86,7.51,2.68,4.91,1.89,6.43-3.6,6.48-7.18.07-14.36,0-21.53.06a6,6,0,0,1-6-3.47c-1.77-3.29-3.89-6.39-5.85-9.58-3.26-5.29-4.58-10.69-2.38-16.91,1.92-5.41,1.06-11.21.26-16.72-1.19-8.2.1-15.52,5.47-21.94,1.75-2.09,2-3.24-1.25-3.84-13.12-2.47-25.52-7.09-37.52-12.85l-.43-.19c-10.12-3.89-12.07-3-14.92,7.19-2.47,8.86-5,17.71-7,26.69-2.13,9.93.36,19.52,3.55,28.9,1.24,3.64,4.95,3.48,7.79,4.32,6.22,1.82,11.59,4.46,14.31,10.9,2.11,5,1.84,5.69-3.46,5.73-5.46.05-10.94-.27-16.38.09-5.17.35-9-1.63-13.25-4.45C181.5,273.21,177.17,258,176,241.06c-.76-10.52-6.31-18.73-13-26.34-1.31-1.48-2.49-2.09-4.39-.88-6.65,4.21-14.13,6.54-21.42,9.3-15.33,5.81-28.63,14.48-38.69,27.66a34.79,34.79,0,0,0-7.07,16.11c-.85,5.67.74,8.06,6.21,9.67,6.06,1.78,8.46,4.72,9.15,10.83.29,2.59-.65,3.92-3.25,3.92q-12.87,0-25.74-.05c-1.9,0-3.12-1.13-4.25-2.52a27.89,27.89,0,0,1-6.19-17.31A160.21,160.21,0,0,1,70.2,238.9c1.19-6.64,4.33-12.09,10.64-15.07,18.74-8.84,28.54-25.4,37.38-42.86,1.78-3.52.2-4.06-2.85-3.78-9.17.82-17,4.89-24.37,10-9.47,6.65-18,14.46-26.43,22.34-9.25,8.64-19.74,14.64-32.7,15.55C10,226.66-1,214,.07,193a30.24,30.24,0,0,1,7.7-19.2c3.79-4.17,8.4-6.45,14.23-4.76,4.85,1.4,6.1,3.84,4.1,8.38-.82,1.84-2.07,3.48-3,5.25a45.11,45.11,0,0,0-3.16,6.24C16.56,198.29,21.06,205,31,205.82c10.53.89,19.09-3.5,27-9.72a152.79,152.79,0,0,0,25.54-26c11.82-15,27.11-23.07,45.71-25.49,7.2-.93,13.69-4.16,20.58-6.09,13.16-3.69,26.48-5.9,40.16-5.56a45,45,0,0,0,18.56-3.38c15.46-6.3,31.63-6.28,47.85-3,12.69,2.56,25.23,5.74,37.82,8.72,7.12,1.68,14.92,1.08,22.2-.51,14-3.05,28.09-5.9,42.49-6.17A62.12,62.12,0,0,1,386.27,134C392.33,136.74,392.33,136.73,390.51,142.72Z" transform="translate(0 -124.4)"/>
</svg>
