<?xml version="1.0" encoding="utf-8"?>
<!-- Generator: Adobe Illustrator 23.1.0, SVG Export Plug-In . SVG Version: 6.00 Build 0)  -->
<svg version="1.1" id="Layer_1" xmlns="http://www.w3.org/2000/svg" xmlns:xlink="http://www.w3.org/1999/xlink" x="0px" y="0px"
	 viewBox="0 0 425.2 425.2" style="enable-background:new 0 0 425.2 425.2;" xml:space="preserve">
<g>
	<path d="M299.1,0c-0.6,0-1.1,0-1.7,0c-3,1.5-4.7,4.1-6.3,7c-2.6,4.8-4.4,9.9-5.7,15.1c-0.9,3.5-2.8,5.2-6.5,5.9
		c-10.2,1.8-17.6,7.6-22.8,16.4c-3.2,5.5-5.8,11.3-8,17.3c-6.2,16.1-11,32.8-16.8,49.1c-2.8,7.8-2.9,7.7-11.2,7.8
		c-9.9,0.1-9.2-1.5-9.3,9.4c0,3.5,1,5.2,4.7,5c1.1-0.1,2.8-0.6,3.3,0.9c0.4,1.3-1,2.1-1.9,3c-5.2,5.5-11.7,8.7-18.9,10.7
		c-8.3,2.2-16.7,4-24.8,6.7c-20.7,7-39.8,16.7-54.7,33.2c-9.1,10.1-15.3,22-20.7,34.4C81.6,259.6,74,299.5,68,339.8
		c-2.8,18.9-4.8,37.9-6.4,56.9c-0.8,9.5-1.8,19-1.6,28.6c48.4,0,96.9,0,145.3,0c0.5-2-0.3-3.8-1-5.6c-3-7.7-9-11.7-16.7-13.5
		c-3-0.7-3.4-1.6-1.5-4c3.2-4.1,5.3-8.7,6.9-13.6c7.1-21.1,9.9-43.1,13.3-64.9c2.6-16.7,6.5-32.8,15.2-47.5
		c6.4-10.9,14.4-20.3,24.4-27.9c3.6-2.8,3.7-2.8,4.4,1.9c0.4,3.1,0.5,6.3,0.7,9.5c1.3,20.7,1.1,41.4-0.8,62.1
		c-1.5,16.1-2.1,32.2-0.7,48.4c1.6,18.6,5,36.9,9.7,55c19.4,0,38.8,0,58.1,0c-1.4-9.6-9.2-17.6-18.5-19.5c-5.6-1.1-11-0.4-16.4,0.9
		c-2.6,0.6-3.7,0.1-3.9-2.8c-1.7-23.3-0.5-46.5,4.2-69.3c5.5-26.4,10.6-52.9,13.4-79.7c1.1-11.1,4.5-21.2,9.9-30.8
		c5.2-9.3,9.7-19,14.9-28.3c4.1-7.4,4.8-14.9,1.8-22.8c-1.2-3.1-2.3-6.2-3.8-9.2c-4.2-8.6-8.6-17-12.7-25.7c-2.1-4.5-1.7-4.9,3.1-5
		c7.1-0.2,7.1-0.2,7.2-7.2c0-1,0-1.9,0-2.9c0.1-3-1.1-4.7-4.4-4.4c-2.2,0.2-4.4,0-6.6,0c-3,0.1-3.9-1.3-3.1-4.2
		c2.5-10,12.1-18.2,22.4-19.4c9.8-1.2,19.3,0.2,28.8,1.9c2.8,0.5,4.4-0.1,5.5-2.8c1.7-4.4,3.7-8.7,5.6-12.9c0.8-1.8,0.9-3.4-0.4-5
		c-13.9-18-29-34.6-49.6-45.2c-2.2-1.1-3.4-2.5-3.9-4.9c-1.3-6.2-2.8-12.4-5.5-18.2C303.9,4.6,302.2,1.7,299.1,0z"/>
</g>
</svg>
