<?xml version="1.0" encoding="utf-8"?>
<!-- Generator: Adobe Illustrator 23.1.0, SVG Export Plug-In . SVG Version: 6.00 Build 0)  -->
<svg version="1.1" baseProfile="tiny" id="Layer_1" xmlns="http://www.w3.org/2000/svg" xmlns:xlink="http://www.w3.org/1999/xlink"
	 x="0px" y="0px" viewBox="0 0 26.9 34.1" xml:space="preserve">
<path d="M13.6,0l-0.1,0L0,1.4v24.7l13.5,8l13.4-8l0,0V1.4L13.6,0z M25,12.1L13.5,5.3l0-0.1l-0.1,0l-0.1-0.1v0.1L1.9,12.1v-9
	l11.5-1.2L25,3.1L25,12.1L25,12.1z M13.4,6.8l11.5,6.7l-4.5,2.6l-7.1-4.2l0,1.4l5.9,3.5l-0.9,0.5l-5-3l0,1.4l3.8,2.3l-0.8,0.5
	l-3-1.8l0,1.4l1.9,1.1l-1.8,1.1L2,13.6L13.4,6.8z M1.9,15.1l11.4,6.8l0,1l-7.9-4.7l0,1.4l8,4.8l0,1.1l-8-4.7l0,1.4l8,4.8l0,0
	l8.1-4.9l0-5.2l3.4-2v10l-11.5,6.9L1.9,25V15.1z"/>
</svg>
