<?xml version="1.0" encoding="UTF-8"?><!DOCTYPE svg PUBLIC "-//W3C//DTD SVG 1.1//EN" "http://www.w3.org/Graphics/SVG/1.1/DTD/svg11.dtd"><svg xmlns="http://www.w3.org/2000/svg" xmlns:xlink="http://www.w3.org/1999/xlink"><defs><style>.cls-1{fill:#69b53b;}</style><style>.cls-1{fill:#111;}</style><style>.cls-1{fill:#231f20;}</style></defs><symbol id="arrow" viewBox="0 0 24.2 11">
<style type="text/css">
	.st0{fill:#3F4242;}
</style>
<polygon class="st0" points="17.6,0 24.2,5.5 17.6,11 17.6,6.6 0,6.6 0,4.4 17.6,4.4 "/>
</symbol><symbol id="cat-icon--strong" viewBox="0 0 454.05 188.36"><title>&#x420;&#x435;&#x441;&#x443;&#x440;&#x441; 1</title><g id="&#x421;&#x43B;&#x43E;&#x439;_2" data-name="&#x421;&#x43B;&#x43E;&#x439; 2"><g id="Layer_1" data-name="Layer 1"><path d="M417,19.56A52.76,52.76,0,0,1,432.39,4c3.37-2.24,5.51-2.23,7.3,1.86,2.86,6.54,5.11,13.06,3.06,20.28a7.58,7.58,0,0,0,1.43,7c1.89,2.53,3.57,5.22,5.32,7.86,4.28,6.45,6,13.25,3.13,20.83a18.24,18.24,0,0,0-.69,10.31,28.24,28.24,0,0,1,0,10c-.87,5.43-3.68,9.23-9.16,10.67a19.55,19.55,0,0,0-10.86,6.67,4.47,4.47,0,0,1-2.9,1.81c-4,.54-14.15-8.48-14.14-12.56,0-.66,0-1.33.05-2,.23-12-.5-13.21-11.55-18a15.07,15.07,0,0,1-6.13-4.17c-2.2-2.76-4.86-2.5-7.65-1.33s-4.7,3-4.32,6.48a216.6,216.6,0,0,1,1.18,24.43,5.23,5.23,0,0,0,.79,2.83c10.49,15.11,14.44,32.89,19.67,50,4,13,11.51,20.15,25,21.1a61.13,61.13,0,0,1,6.41,1.05c6,1.13,9.66,4.94,11.44,10.62,2.22,7.07,1.12,8.58-6.25,8.63s-14.66,0-22,.06c-3,0-5.49-.54-7.72-2.73-3.26-3.22-7.53-4.86-11.64-6.68-4.5-2-8.69-4.51-11.37-8.68-3.75-5.83-8.85-10.35-13.63-15.21-9.58-9.75-19.49-19.15-28.54-29.41-6.52-7.38-10.79-15.58-10.71-25.61,0-3.16-.79-4.47-4-2.89a8.34,8.34,0,0,1-3.34,1c-9.53.15-14.2,5.84-17.57,14.06-3,7.2-7.2,13.89-10.77,20.85a32.13,32.13,0,0,0-3.91,14.84c0,7.91,1.87,10.75,9.33,13.42,4.62,1.65,9.07,3.38,11.6,8,2.86,5.24,2,6.86-3.85,6.92-7.66.07-15.33,0-23,.06a6.46,6.46,0,0,1-6.45-3.7c-1.89-3.52-4.15-6.83-6.25-10.23-3.48-5.65-4.89-11.42-2.53-18.07,2-5.77,1.12-12,.27-17.84-1.27-8.76.11-16.58,5.84-23.43,1.87-2.23,2.11-3.46-1.33-4.11-14-2.63-27.25-7.57-40.06-13.72l-.46-.2c-10.82-4.15-12.9-3.22-15.94,7.67-2.64,9.46-5.39,18.92-7.44,28.51-2.28,10.6.38,20.84,3.79,30.86,1.32,3.88,5.28,3.72,8.32,4.61,6.64,1.95,12.37,4.76,15.27,11.64,2.26,5.35,2,6.07-3.69,6.12-5.83.05-11.68-.29-17.49.1-5.52.37-9.64-1.74-14.15-4.75-16.29-10.89-20.92-27.14-22.22-45.22-.82-11.23-6.74-20-13.92-28.13-1.4-1.58-2.67-2.23-4.7-.94-7.09,4.5-15.08,7-22.87,9.94-16.37,6.2-30.57,15.45-41.31,29.53a37.18,37.18,0,0,0-7.56,17.21c-.9,6,.8,8.6,6.64,10.32,6.47,1.91,9,5,9.77,11.57.31,2.76-.69,4.18-3.47,4.19q-13.74,0-27.49-.06c-2,0-3.33-1.21-4.54-2.7A29.79,29.79,0,0,1,71.83,157,171.1,171.1,0,0,1,75,122.27c1.27-7.1,4.61-12.91,11.35-16.09,20-9.44,30.48-27.13,39.92-45.78,1.9-3.76.22-4.33-3-4-9.8.88-18.19,5.22-26,10.73C87.06,74.19,78,82.53,69,91c-9.87,9.22-21.08,15.63-34.92,16.6C10.66,109.19-1.09,95.69.08,73.24A32.24,32.24,0,0,1,8.3,52.74c4-4.45,9-6.89,15.2-5.08,5.17,1.49,6.5,4.1,4.37,8.94-.87,2-2.21,3.72-3.25,5.61a49,49,0,0,0-3.37,6.66C17.69,78.9,22.49,86,33.09,86.94c11.25,1,20.39-3.73,28.87-10.38A162.45,162.45,0,0,0,89.24,48.8c12.63-16.06,29-24.63,48.81-27.21,7.69-1,14.62-4.44,22-6.51,14.05-3.94,28.28-6.3,42.88-5.94a47.82,47.82,0,0,0,19.82-3.61c16.51-6.72,33.78-6.7,51.1-3.21,13.55,2.72,26.94,6.12,40.39,9.3,7.6,1.8,15.94,1.15,23.7-.54,15-3.26,30-6.3,45.38-6.59a66.34,66.34,0,0,1,29.18,5.71C419,13.17,419,13.16,417,19.56Z"/></g></g></symbol><symbol id="cat-icon--thin" viewBox="0 0 367.6 512"><title>&#x420;&#x435;&#x441;&#x443;&#x440;&#x441; 2</title><g id="&#x421;&#x43B;&#x43E;&#x439;_2" data-name="&#x421;&#x43B;&#x43E;&#x439; 2"><g id="Layer_1" data-name="Layer 1"><path d="M288,0h-2c-3.58,1.86-5.72,5-7.55,8.42a83.19,83.19,0,0,0-6.92,18.18c-1.11,4.27-3.43,6.31-7.77,7.07-12.28,2.12-21.23,9.12-27.47,19.75a140.06,140.06,0,0,0-9.69,20.82c-7.49,19.44-13.22,39.49-20.21,59.1-3.34,9.36-3.48,9.24-13.49,9.34-11.89.11-11.06-1.86-11.24,11.33-.06,4.18,1.26,6.29,5.67,6.07,1.37-.06,3.43-.69,3.94,1.14.43,1.52-1.26,2.58-2.26,3.64-6.27,6.64-14.11,10.5-22.79,12.85-10,2.69-20.12,4.79-29.88,8.09-24.9,8.4-48,20.13-65.93,40-11,12.12-18.48,26.49-24.88,41.39C26,312.57,16.91,360.63,9.64,409.14,6.23,431.87,3.83,454.72,2,477.61,1.05,489.05-.15,500.49,0,512H175c.61-2.44-.39-4.61-1.22-6.76-3.56-9.26-10.87-14.08-20.09-16.22-3.65-.84-4.12-1.94-1.85-4.83a54,54,0,0,0,8.35-16.39c8.58-25.37,11.89-51.84,16-78.11,3.15-20.06,7.87-39.46,18.26-57.16a114.66,114.66,0,0,1,29.38-33.63c4.36-3.33,4.5-3.33,5.25,2.33.5,3.78.63,7.61.86,11.43a490.23,490.23,0,0,1-.91,74.8c-1.78,19.42-2.49,38.81-.8,58.29A397.67,397.67,0,0,0,240,512h70a28.57,28.57,0,0,0-22.27-23.44c-6.74-1.32-13.28-.43-19.79,1.07-3.14.72-4.45.15-4.72-3.43a300.19,300.19,0,0,1,5.05-83.5c6.59-31.8,12.8-63.67,16.1-96a94,94,0,0,1,11.94-37.09c6.27-11.19,11.73-22.82,17.88-34.08,4.88-8.91,5.81-17.92,2.18-27.39-1.43-3.73-2.78-7.51-4.52-11.1-5-10.33-10.35-20.52-15.31-30.89-2.56-5.36-2-5.93,3.73-6,8.56-.19,8.57-.19,8.7-8.68,0-1.16,0-2.33,0-3.49.07-3.64-1.35-5.65-5.33-5.35-2.66.2-5.34,0-8,.05-3.63.07-4.68-1.52-3.79-5,3-12,14.6-21.9,27-23.41,11.76-1.44,23.25.23,34.72,2.27,3.41.61,5.29-.14,6.57-3.37,2.1-5.26,4.45-10.42,6.77-15.59,1-2.15,1.05-4.05-.49-6-16.68-21.67-34.87-41.7-59.71-54.4A8,8,0,0,1,302,31.13c-1.58-7.5-3.42-14.94-6.66-21.95C293.68,5.5,291.72,2.06,288,0Z"/></g></g></symbol><symbol id="stroke" viewBox="0 0 231 231"><title>&#x420;&#x435;&#x441;&#x443;&#x440;&#x441; 2</title><g id="&#x421;&#x43B;&#x43E;&#x439;_2" data-name="&#x421;&#x43B;&#x43E;&#x439; 2"><g id="&#x421;&#x43B;&#x43E;&#x439;_1-2" data-name="&#x421;&#x43B;&#x43E;&#x439; 1"><circle class="cls-1" cx="115.5" cy="115.5" r="115.5"/></g></g></symbol><symbol id="copyright-emblem" viewBox="0 0 26.95 34.09"><title>copyright-logo</title><path d="M13.62,0l-.15,0L0,1.41V26.07l13.47,8,13.43-8,.05,0V1.41ZM25,12.13,13.5,5.33v-.1l-.08,0-.09-.06v.11L1.92,12.12v-9L13.47,1.93,25,3.15v9ZM13.41,6.79,24.92,13.5l-4.48,2.64-7.09-4.22v1.41l5.9,3.52-.86.5-5-3v1.42l3.82,2.27-.78.53-3-1.79V18.2l1.85,1.09-1.8,1.08L2,13.62ZM1.92,15.13l11.42,6.79v1L5.41,18.23v1.42l8,4.8,0,1.07-8-4.74V22.2l8,4.82,0,0,8.15-4.87V17L25,15V25L13.47,31.85,1.92,25Z"/></symbol><symbol id="facebook" viewBox="0 0 10 19"><title>facebook</title><path d="M7.05,19H2V10.16H0V5.8H1.94A5.68,5.68,0,0,1,3.07,1.39,4.76,4.76,0,0,1,6.46,0H10V4.21H7.22A4.2,4.2,0,0,0,7,5.8H10v4.37H7.05ZM3.12,18H5.94V9.14H8.87V6.83H5.94V6.32c0-1.39,0-2.59.75-3.05l.14-.09H8.89V1H6.49a3.54,3.54,0,0,0-2.57,1c-.77.84-1,2.26-.82,4.21l.07.57H1.11V9.14h2Z"/></symbol><symbol id="footer-logo" viewBox="0 0 127.8 23.5"><title>Vector Smart Object</title><path class="cls-1" d="M1.6,21.5A9.1,9.1,0,0,1,0,15.9V7.6A9.22,9.22,0,0,1,1.5,1.9C2.6.6,4.3,0,6.8,0s4.1.6,5.1,1.7a7.18,7.18,0,0,1,1.5,4.9v2H8.5V6.3a4.92,4.92,0,0,0-.3-2,1.44,1.44,0,0,0-1.4-.8c-.7,0-1.2.2-1.4.7a6.46,6.46,0,0,0-.3,2.2V17.1a4.14,4.14,0,0,0,.4,2.1c.2.5.7.7,1.4.7s1.1-.2,1.3-.7a5.84,5.84,0,0,0,.3-2.1V14.7h4.9v2a7.65,7.65,0,0,1-1.5,5q-1.5,1.8-5.1,1.8C4.4,23.4,2.6,22.8,1.6,21.5Z"/><path class="cls-1" d="M19.3.3H25l4.2,22.8H24.6l-.8-4.8H20.5l-.8,4.8H15Zm4.1,15L22.2,6.4,21,15.3Z"/><path class="cls-1" d="M32.7,4.1H29.3V.3H41.2V4H37.8V23.1H32.7Z"/><path class="cls-1" d="M50.3.3h8.8V2.7H53.4v7.5H58v2.3H53.4v8.4h5.7v2.3H50.2V.3Z"/><path class="cls-1" d="M61.7.3h2.2l6.5,15.1V.3H73V23.1H71L64.4,7.5V23.1H61.7Z"/><path class="cls-1" d="M76,.3h8.8V2.7H79.1v7.5h4.6v2.3H79.1v8.4h5.7v2.3H76Z"/><path class="cls-1" d="M87.4.3H92a8,8,0,0,1,5.1,1.4c1.1.9,1.6,2.5,1.6,4.6,0,2.9-.9,4.7-2.8,5.3L99.1,23H96L93,12.3H90.5V23H87.3V.3Zm4.4,9.8a4.37,4.37,0,0,0,2.9-.8q.9-.75.9-3a6.46,6.46,0,0,0-.3-2.2,2.54,2.54,0,0,0-1.1-1.2A4.56,4.56,0,0,0,92,2.5H90.6V10h1.2Z"/><path class="cls-1" d="M102.7,21.4a10.11,10.11,0,0,1-1.4-5.8V8a16.35,16.35,0,0,1,.5-4.3,5.08,5.08,0,0,1,1.9-2.6,6.53,6.53,0,0,1,3.7-.9c2.1,0,3.6.5,4.5,1.6a7.65,7.65,0,0,1,1.4,5v.8h-3V6.9a14.73,14.73,0,0,0-.2-2.5,2,2,0,0,0-.8-1.3,3.09,3.09,0,0,0-1.9-.5,3,3,0,0,0-2,.6,2.26,2.26,0,0,0-.8,1.6,18.7,18.7,0,0,0-.2,2.7V16a9.08,9.08,0,0,0,.6,3.8c.4.8,1.2,1.1,2.4,1.1a2.42,2.42,0,0,0,2.4-1.2,9.2,9.2,0,0,0,.7-4V14.1h-2.9V11.8h5.8V23.1h-2l-.3-2.6a4.08,4.08,0,0,1-4.1,2.9A5,5,0,0,1,102.7,21.4Z"/><path class="cls-1" d="M119.8,15.1,114.9.4h3l3.5,11,3.4-11h3l-4.9,14.7v8h-3v-8Z"/></symbol><symbol id="instagram" viewBox="0 0 16 16.01"><title>instagram</title><path class="cls-1" d="M11.83,1A3.14,3.14,0,0,1,15,4.18v7.65A3.13,3.13,0,0,1,11.83,15H4.17A3.13,3.13,0,0,1,1,11.83V4.18A3.14,3.14,0,0,1,4.17,1h7.66m0-1H4.17A4.19,4.19,0,0,0,0,4.18v7.65A4.19,4.19,0,0,0,4.17,16h7.66A4.19,4.19,0,0,0,16,11.83V4.18A4.19,4.19,0,0,0,11.83,0Z"/><path class="cls-1" d="M8,4.93A3.08,3.08,0,1,1,4.92,8,3.08,3.08,0,0,1,8,4.93m0-1A4.13,4.13,0,1,0,12.12,8,4.13,4.13,0,0,0,8,3.88Z"/><circle class="cls-1" cx="12.27" cy="3.74" r="0.93"/></symbol><symbol id="vk" viewBox="0 0 22 12"><title>vk</title><path d="M17.55,12A2.86,2.86,0,0,1,16,11.52a7.15,7.15,0,0,1-1.31-1.17c-.32-.33-.86-.89-1.06-.89s-.35.7-.35,1.19a1.32,1.32,0,0,1-.34.92,1.59,1.59,0,0,1-.89.38H10.66a8.16,8.16,0,0,1-5.44-2.3C2.52,7.1.21,2.2.11,2A1.06,1.06,0,0,1,.22.86a1.45,1.45,0,0,1,1-.36l3,0h.08A1.92,1.92,0,0,1,5,.75a1.34,1.34,0,0,1,.45.56,18,18,0,0,0,1.09,2c1,1.52,1.39,1.87,1.54,1.95a6.54,6.54,0,0,0,.14-2.18,2.14,2.14,0,0,0-.19-1,1,1,0,0,0-.57-.22l-.53-.53c-.07-.5.47-.93.84-1.1A6.09,6.09,0,0,1,10.08,0h.52a6.68,6.68,0,0,1,1.58.15c1.25.27,1.2,1.32,1.15,2.52,0,.35,0,.76,0,1.24,0,.11,0,.23,0,.36a3.42,3.42,0,0,0,.07,1,6.77,6.77,0,0,0,1.52-1.89A13.91,13.91,0,0,0,16,1.24h0A1.14,1.14,0,0,1,17.17.52L20.3.5h.28c.72,0,1.17.22,1.34.65s.13,1.26-1.72,3.5l-.72.86a5.33,5.33,0,0,0-.91,1.22,5.32,5.32,0,0,0,.92.87,10.67,10.67,0,0,1,2.22,2.34,1.25,1.25,0,0,1,.19,1.28,1.68,1.68,0,0,1-1.38.75l-2.78,0ZM13.66,8.31c.66,0,1.23.6,1.84,1.24a6.5,6.5,0,0,0,1.1,1,1.81,1.81,0,0,0,1,.32h.08l2.79,0a1.18,1.18,0,0,0,.39-.1.57.57,0,0,0-.07-.13,10.13,10.13,0,0,0-2-2.07C18,7.78,17.52,7.4,17.47,6.8s.36-1.09,1.18-2l.71-.85a8.13,8.13,0,0,0,1.51-2.25,2.92,2.92,0,0,0-.5,0l-3.2,0c-.14,0-.18,0-.18,0A16.33,16.33,0,0,1,15.79,4c-1.39,2.14-2,2.43-2.5,2.44a.79.79,0,0,1-.42-.12c-.73-.43-.71-1.39-.68-2.1V3.9c0-.49,0-.91,0-1.28,0-1.28,0-1.29-.28-1.35a4.88,4.88,0,0,0-1.36-.12h-.51a9.09,9.09,0,0,0-1.4.08.86.86,0,0,1,.19.19,2.82,2.82,0,0,1,.44,1.67c.1,1.25,0,2.89-.74,3.28a1,1,0,0,1-.44.11c-.68,0-1.36-.68-2.51-2.49a16.6,16.6,0,0,1-1.16-2.2.2.2,0,0,0-.06-.07.73.73,0,0,0-.23-.09l-2.94,0H1.18c.43.91,2.51,5,4.78,7.17a7.13,7.13,0,0,0,4.71,2H12a.53.53,0,0,0,.2-.07s0,0,0-.08c0-.2,0-2,1.16-2.31A1.35,1.35,0,0,1,13.66,8.31Z" transform="translate(0)"/></symbol><symbol id="emblem--mobile" viewBox="0 0 33.32 37.61">
<style type="text/css">
	.st0{fill:#FDC305;}
	.st1{fill:#F06351;}
</style>
<g>
	<path class="st0" d="M6.07,20.72l0.05-2.27c6.67-0.91,13.44-1.37,20.16-1.33c-0.01,0.61-0.03,1.21-0.06,1.82
		c0,0,2.92-1.35,6.04-1.81C29.9,10.81,23.8,6.31,16.65,6.31c-8.32,0-15.22,6.1-16.47,14.08C2.36,20.52,6.07,20.72,6.07,20.72z"/>
	<path class="st0" d="M27.24,24.23c-1.16,1.28-1.39,1.2-1.39,3.46c0,0.91,0.03,4.9,0.04,9.17c4.48-2.99,7.44-8.09,7.44-13.88
		c0-1.05-0.1-2.08-0.28-3.08C31.22,20.96,28.22,23.14,27.24,24.23z"/>
	<path class="st0" d="M6.36,25.72c0,0-3.79-1.44-5.18-1.82C0.75,23.77,0.37,23.66,0,23.61c0.23,6.05,3.67,11.27,8.68,14.01
		L6.36,25.72z"/>
</g>
<path class="st1" d="M26.29,17.12c0.15-8.48-1.4-16.47-1.4-16.47s-0.14-1.3-0.86-0.24c-0.72,1.06-1.2,3.94-1.2,3.94
	c-7.44-0.43-12.77,0.34-12.77,0.34C9.24,1.95,7.85,0.75,7.18,1.04C6.51,1.33,6.46,4.35,6.46,4.35l-0.33,14.1
	C12.8,17.54,19.57,17.08,26.29,17.12z"/>
<path d="M12.41,14c-0.05-0.09,1.02,0.68,1.41,0.92c0.38,0.24,0.61,0.42,0.61,0.59c0,0.17-0.26,0.34-0.62,0.34s-0.91-0.12-0.96-0.26
	c0,0,0.6-0.02,0.94-0.02h0.29C14.07,15.56,12.68,14.53,12.41,14z"/>
<path d="M19.89,14.11c0,0-1.05,1.27-1.09,1.33c-0.04,0.06-0.17,0.34,0.19,0.29s1.11-0.22,1.22-0.28c0.11-0.06,0.07-0.2-0.12-0.18
	c-0.2,0.02-0.68,0.05-0.98,0.11l0.84-1.26C19.94,14.13,19.97,14.01,19.89,14.11z"/>
<path d="M16.75,20.2c0,0,0.81-0.35,1.09-1.01c0.28-0.66,0.04-0.91-0.44-0.98c-0.48-0.07-1.34-0.03-1.74,0.34
	c-0.4,0.37-0.34,0.73-0.05,0.95C15.9,19.73,16.46,20.11,16.75,20.2z"/>
<path class="st1" d="M16.35,21.45c0,0-0.18,0.37-0.46,0.59c-0.24,0.19-0.57,0.36-1.02,0.39c-0.64,0.03-1.06-0.17-1.45-0.45
	c-0.2-0.14-0.4-0.25-0.53-0.44c-0.16-0.18-0.36-0.25-0.36-0.25s0.75,4.1,2.57,4.75c1.82,0.65,2.14-0.75,2.2-1.13
	c0.05-0.33,0-2.08-0.82-3.22C16.46,21.38,16.45,21.58,16.35,21.45z"/>
<g>
	<path d="M14.71,22.59c-0.01,0-0.01,0-0.02,0c-1.29-0.01-2.29-1.36-2.33-1.42c-0.05-0.06-0.03-0.15,0.03-0.2
		c0.06-0.05,0.15-0.03,0.2,0.03c0.01,0.01,0.96,1.29,2.1,1.3c0,0,0.01,0,0.01,0c0.58,0,1.13-0.33,1.63-0.99l0.14-0.19l0.1,0.21
		c0,0.01,0.37,0.76,0.99,0.79c0.5,0.03,1.05-0.41,1.62-1.28c0.04-0.07,0.13-0.09,0.2-0.04c0.07,0.04,0.09,0.13,0.04,0.2
		c-0.63,0.97-1.26,1.45-1.88,1.41c-0.56-0.04-0.94-0.49-1.12-0.76C15.91,22.27,15.33,22.59,14.71,22.59z"/>
</g>
<path class="st1" d="M26.24,18.92c0,0-2.54,2.24-5.06,5.19s-5.29,4.88-5.29,4.88c-0.22-0.53-1.62-1.51-1.62-1.51
	s-3.13-2.14-5.18-3.82c-1.18-0.97-2.35-2.17-3.13-3.01c-0.29-0.02-1.07-0.06-2.01-0.11c4.69,6.97,11.97,8.8,11.97,8.8
	c0.86-0.14,3.28-1.86,5.08-3.26c1.8-1.4,4.75-4.52,5.94-5.89c0.6-0.69,0.94-1.42,1.14-1.97C26.96,18.6,26.24,18.92,26.24,18.92z"/>
</symbol><symbol id="logo--desktop" viewBox="0 0 201.99 59.48">
<style type="text/css">
	.st0{fill:#FDC305;}
	.st1{fill:#F06351;}
	.st2{fill:#E55645;}
	.st3{fill:#111111;}
	.st4{fill:#444444;}
</style>
<path class="st0" d="M59.88,23.99c-5.45-13.05-20.45-19.21-33.5-13.76S7.18,30.69,12.63,43.74c3.59,8.58,11.3,14.19,19.88,15.46
	c-0.58-2.09-1.16-4.4-1.69-6.86c1.5,0.99,3.09,1.81,4.77,2.56c-0.01,0-0.01,0.01-0.02,0.01c0,0,0.12,2.16,0.28,4.57
	c1.77,0.03,3.56-0.13,5.35-0.48c-0.04-0.16-0.04-0.4,0.01-0.76c0.29-1.86,1.09-5.24,1.25-7.41c1.13-1.06,2.14-2.33,2.9-3.71
	c0,0.01,0,0.02,0,0.04c-0.02,0.14-0.04,0.29-0.05,0.43c-0.55,4.26-1.7,8.81-2.4,10.07c-0.24,0.44-0.55,0.86-0.83,1.15
	c1.37-0.32,2.73-0.76,4.07-1.32C59.18,52.04,65.34,37.04,59.88,23.99z M58.41,27.78c-0.43,0.43-1.35,0.72-1.49-0.58
	s-0.19-2.22-0.19-2.22s-1.93-3.42-2.65-3.47c-0.72-0.05-5.83,3.47-7.18,4.96c-1.16,1.29-1.4,1.2-1.4,3.47
	c0,1.71,0.22,8.17,0.1,13.11v0v0c0,0-2.17,0.58-8.15,2.17c-5.98,1.59-7.81,1.78-7.81,1.78l-1.01-5.83c0,0,0,0,0,0
	c-0.01,0-0.02,0-0.04-0.01c0,0,0,0,0,0c-0.01,0-0.02,0-0.03-0.01c-0.01,0-0.03,0-0.05-0.01c0,0,0,0,0,0l-2.57-13.19
	c0,0-3.81-1.45-5.2-1.83c-1.4-0.39-2.26-0.67-4.05,0.63c-1.78,1.3-1.73,3.86-1.73,3.86s0.43,0.96,0.48,1.45
	c0.05,0.48-1.2,0.43-2.02,0.43s-0.92-1.45-0.29-3.13c0.63-1.69,1.93-3.71,1.93-3.71s1.2-2.26,2.07-2.89c0,0,0.14-0.34,1.25-0.24
	c1.11,0.1,7.28,0.43,7.28,0.43l0.05-2.27c6.69-0.91,13.49-1.37,20.24-1.34c-0.01,0.61-0.03,1.22-0.06,1.83c0,0,4.39-2.02,8.14-1.98
	c0,0,0.43-0.05,0.77,0.39c0.34,0.43,2.41,2.99,2.65,3.37c0.24,0.39,1.2,1.73,1.83,3.04C59.27,26,58.84,27.35,58.41,27.78z"/>
<path class="st1" d="M56.46,21.67c0.47,0.6,0.89,1.13,0.99,1.29c0.24,0.39,1.2,1.73,1.83,3.04c0,0-0.43,1.35-0.87,1.78
	s-1.35,0.72-1.49-0.58s-0.19-2.22-0.19-2.22s-1.93-3.42-2.65-3.47c-0.72-0.05-5.83,3.47-7.18,4.96c-1.16,1.29-1.4,1.2-1.4,3.47
	c0,1.5,0.17,6.65,0.13,11.23c1.81,0.21,4.47,0.71,5.27,1.88c0,0-0.29-7.18,7.81-3.42c0,0,0.29-9.78,11.47-7.28
	C70.16,32.36,64.5,25.4,56.46,21.67z"/>
<path class="st1" d="M45.93,19.35c0.15-8.51-1.41-16.53-1.41-16.53s-0.14-1.3-0.87-0.24c-0.72,1.06-1.2,3.95-1.2,3.95
	C34.99,6.1,29.64,6.87,29.64,6.87c-0.82-2.75-2.22-3.95-2.89-3.66c-0.67,0.29-0.72,3.33-0.72,3.33l-0.33,14.16
	C32.38,19.77,39.18,19.31,45.93,19.35z"/>
<path class="st2" d="M45.35,47.12c0.13-1.06,0.2-2.49,0.24-4.06c0,0-2.17,0.58-8.15,2.17c-5.98,1.59-7.81,1.78-7.81,1.78l1.11,5.01
	c0.02,0.11,0.05,0.22,0.07,0.33c1.5,0.99,3.09,1.81,4.77,2.56c4.37-2.16,6.87-4.13,6.87-4.13c0,0.02,0,0.04,0,0.06
	C43.58,49.77,44.59,48.5,45.35,47.12z"/>
<path d="M32,16.22c-0.05-0.09,1.03,0.68,1.41,0.92c0.39,0.24,0.61,0.42,0.61,0.59c0,0.17-0.27,0.34-0.63,0.34s-0.92-0.12-0.96-0.27
	c0,0,0.6-0.02,0.94-0.02h0.29C33.66,17.78,32.26,16.75,32,16.22z"/>
<path d="M39.5,16.33c0,0-1.05,1.28-1.09,1.34c-0.04,0.06-0.17,0.34,0.19,0.29c0.35-0.05,1.12-0.23,1.22-0.28
	c0.11-0.06,0.07-0.2-0.12-0.18c-0.21,0.02-0.68,0.05-0.99,0.11l0.84-1.27C39.56,16.34,39.58,16.22,39.5,16.33z"/>
<path d="M36.36,22.44c0,0,0.81-0.35,1.09-1.01c0.28-0.66,0.04-0.92-0.44-0.98s-1.35-0.03-1.74,0.34c-0.4,0.37-0.34,0.73-0.05,0.96
	C35.5,21.97,36.06,22.35,36.36,22.44z"/>
<path class="st1" d="M35.95,23.7c0,0-0.18,0.37-0.46,0.6c-0.24,0.19-0.57,0.37-1.02,0.39c-0.64,0.03-1.06-0.17-1.46-0.45
	c-0.2-0.14-0.4-0.26-0.53-0.44c-0.16-0.18-0.36-0.25-0.36-0.25s0.75,4.12,2.58,4.77c1.83,0.65,2.15-0.75,2.21-1.14
	c0.05-0.33,0-2.09-0.82-3.24C36.07,23.63,36.05,23.83,35.95,23.7z"/>
<g>
	<path d="M34.3,24.84c-0.01,0-0.01,0-0.02,0c-1.3-0.01-2.3-1.37-2.34-1.42c-0.05-0.06-0.03-0.15,0.03-0.2
		c0.06-0.05,0.15-0.03,0.2,0.03c0.01,0.01,0.96,1.3,2.11,1.31c0,0,0.01,0,0.01,0c0.59,0,1.14-0.33,1.63-0.99l0.14-0.19l0.1,0.21
		c0,0.01,0.37,0.76,0.99,0.8c0.5,0.03,1.06-0.41,1.62-1.28c0.04-0.07,0.13-0.09,0.2-0.04c0.07,0.04,0.09,0.13,0.04,0.2
		c-0.64,0.98-1.27,1.45-1.88,1.41c-0.57-0.04-0.95-0.5-1.12-0.77C35.51,24.52,34.93,24.84,34.3,24.84z"/>
</g>
<circle class="st0" cx="36.26" cy="34.55" r="3.75"/>
<path class="st3" d="M41.23,31.5l-3.13,1.31l1.15-5.64l-7.5,9.76l3.13-1.31l-1.15,5.64L41.23,31.5z M33.84,35.33l4.13-5.41
	l-0.81,4.02l1.97-0.82L35,38.52l0.81-4.02L33.84,35.33z"/>
<circle class="st3" cx="32.44" cy="32.74" r="1.12"/>
<circle class="st3" cx="38.96" cy="37.13" r="0.79"/>
<circle class="st3" cx="39.92" cy="35.4" r="0.35"/>
<path class="st1" d="M45.88,21.16c0,0-2.55,2.25-5.08,5.21s-5.31,4.89-5.31,4.89c-0.22-0.53-1.63-1.51-1.63-1.51
	s-3.14-2.15-5.2-3.84c-1.18-0.97-2.36-2.18-3.14-3.02c-0.29-0.02-1.07-0.06-2.01-0.11c4.71,7,12.02,8.84,12.02,8.84
	c0.87-0.14,3.29-1.87,5.1-3.28c1.81-1.41,4.77-4.54,5.96-5.92c0.6-0.69,0.95-1.43,1.14-1.98C46.6,20.83,45.88,21.16,45.88,21.16z"/>
<polygon class="st0" points="65.22,3.5 56.76,12.94 55.54,10.94 63.69,0 "/>
<polygon class="st0" points="62.65,17.26 68.2,13.15 67.41,9.41 62.01,14.23 "/>
<polygon class="st0" points="59.92,49.37 66.05,52.55 69.06,50.21 62.37,47.46 "/>
<polygon class="st0" points="1.95,5.98 5.02,2.61 14.31,11.61 13.09,13.89 "/>
<polygon class="st0" points="7.38,16.28 2.68,13.15 0.28,17.01 5.43,19.42 "/>
<polygon class="st0" points="13.91,52.55 9.36,55.9 12.17,59.48 16.18,55.46 "/>
<path class="st1" d="M25.93,27.97c0,0-3.81-1.45-5.2-1.83c-1.4-0.39-2.26-0.67-4.05,0.63c-1.78,1.3-1.73,3.86-1.73,3.86
	s0.43,0.96,0.48,1.45c0.05,0.48-1.2,0.43-2.02,0.43s-0.92-1.45-0.29-3.13c0.63-1.69,1.93-3.71,1.93-3.71C9.59,28.5,0,35.06,0,35.06
	s2.94-0.29,8.19,0.24c5.25,0.53,4.96,4.67,4.96,4.67s3.52-0.96,5.64-1.11c2.12-0.14,2.26,2.12,2.26,2.12l0.53,3.86
	c0,0,0.48-0.63,2.65-2.36c1.86-1.49,3.89-1.36,4.39-1.3l0,0L25.93,27.97z"/>
<g>
	<path class="st3" d="M85.66,42.03c-0.93-1.2-1.4-2.93-1.4-5.19v-7.51c0-2.31,0.46-4.06,1.38-5.24c0.92-1.18,2.51-1.77,4.75-1.77
		c2.14,0,3.65,0.52,4.54,1.57c0.89,1.04,1.33,2.54,1.33,4.49v1.76h-4.14V28.2c0-0.62-0.03-1.12-0.09-1.5
		c-0.06-0.38-0.22-0.69-0.47-0.94c-0.25-0.25-0.63-0.38-1.15-0.38c-0.78,0-1.28,0.25-1.5,0.75c-0.22,0.5-0.34,1.23-0.34,2.2v9.53
		c0,0.98,0.13,1.72,0.39,2.2c0.26,0.48,0.74,0.72,1.45,0.72c0.72,0,1.19-0.25,1.4-0.74c0.21-0.49,0.31-1.22,0.31-2.19v-2.04h4.14
		v1.73c0,2-0.44,3.55-1.32,4.65c-0.88,1.1-2.4,1.64-4.56,1.64C88.17,43.83,86.59,43.23,85.66,42.03z"/>
	<path class="st3" d="M101.91,22.58h4.74l4.04,20.97h-3.93l-0.78-4.61h-3.31l-0.8,4.61h-4.01L101.91,22.58z M105.56,36.3l-1.27-8.44
		l-1.24,8.44H105.56z"/>
	<path class="st3" d="M113.72,25.74h-3.24v-3.16h10.72v3.16h-3.18v17.81h-4.3V25.74z"/>
	<path class="st4" d="M129.61,22.58h8.13v2.17h-5.2v6.94h4.22v2.07h-4.22v7.69h5.26v2.1h-8.18V22.58z"/>
	<path class="st4" d="M140.15,22.58h1.99l5.95,13.93V22.58h2.43v20.97h-1.86l-6.03-14.32v14.32h-2.48V22.58z"/>
	<path class="st4" d="M153.82,22.58h8.13v2.17h-5.2v6.94h4.22v2.07h-4.22v7.69H162v2.1h-8.18V22.58z"/>
	<path class="st4" d="M164.35,22.58h4.22c2.12,0,3.68,0.44,4.67,1.31c0.99,0.87,1.49,2.29,1.49,4.26c0,2.69-0.86,4.32-2.59,4.89
		l2.98,10.51h-2.82l-2.74-9.84h-2.28v9.84h-2.92V22.58z M168.39,31.62c1.26,0,2.16-0.25,2.7-0.75c0.54-0.5,0.82-1.41,0.82-2.72
		c0-0.86-0.1-1.54-0.29-2.03c-0.19-0.49-0.53-0.85-1.01-1.09c-0.48-0.23-1.17-0.35-2.04-0.35h-1.3v6.94H168.39z"/>
	<path class="st4" d="M178.67,42.01c-0.84-1.2-1.27-2.98-1.27-5.35v-7.02c0-1.62,0.17-2.96,0.5-4c0.34-1.04,0.91-1.85,1.74-2.41
		c0.82-0.56,1.95-0.84,3.38-0.84c1.93,0,3.33,0.49,4.18,1.47c0.85,0.98,1.28,2.53,1.28,4.63v0.78h-2.74v-0.65
		c0-1-0.06-1.77-0.18-2.32c-0.12-0.54-0.38-0.95-0.76-1.23c-0.39-0.28-0.96-0.41-1.72-0.41c-0.81,0-1.42,0.19-1.81,0.56
		c-0.4,0.37-0.65,0.87-0.76,1.49c-0.11,0.62-0.17,1.45-0.17,2.49v7.77c0,1.6,0.19,2.76,0.58,3.46c0.39,0.7,1.14,1.05,2.24,1.05
		c1.09,0,1.83-0.38,2.24-1.14c0.41-0.76,0.61-1.98,0.61-3.65v-1.45h-2.67v-2.07h5.31v10.38h-1.84l-0.29-2.41
		c-0.66,1.78-1.9,2.67-3.73,2.67C180.88,43.81,179.51,43.21,178.67,42.01z"/>
	<path class="st4" d="M194.69,36.15l-4.53-13.56h2.72l3.21,10.12l3.16-10.12h2.74l-4.51,13.56v7.4h-2.8V36.15z"/>
</g>
</symbol><symbol id="logo--mobile" viewBox="0 0 100.5 18.09">
<style type="text/css">
	.st0{fill:#111111;}
</style>
<g>
	<path class="st0" d="M1.22,16.58C0.41,15.57,0,14.12,0,12.22V5.88c0-1.94,0.4-3.4,1.21-4.4C2.02,0.5,3.4,0,5.36,0
		c1.87,0,3.19,0.44,3.97,1.32c0.78,0.88,1.17,2.13,1.17,3.76V6.6H6.64V4.84c0-0.68-0.07-1.2-0.22-1.56
		c-0.15-0.36-0.5-0.54-1.06-0.54s-0.93,0.19-1.1,0.58c-0.18,0.38-0.26,0.92-0.26,1.6v8.27c0,0.69,0.09,1.23,0.28,1.6
		c0.18,0.37,0.55,0.55,1.09,0.55c0.54,0,0.89-0.18,1.05-0.55c0.15-0.37,0.23-0.9,0.23-1.6v-1.85h3.86v1.52
		c0,1.65-0.39,2.93-1.17,3.85c-0.78,0.92-2.1,1.38-3.97,1.38C3.42,18.09,2.04,17.58,1.22,16.58z"/>
	<path class="st0" d="M15.2,0.24h4.5l3.33,17.59h-3.64l-0.6-3.71h-2.62l-0.62,3.71h-3.73L15.2,0.24z M18.41,11.79l-0.95-6.86
		l-0.95,6.86H18.41z"/>
	<path class="st0" d="M25.75,3.13h-2.69V0.24h9.33v2.89h-2.67v14.7h-3.97V3.13z"/>
	<path class="st0" d="M39.53,0.24h6.92v1.82h-4.43v5.82h3.59v1.74h-3.59v6.45h4.48v1.76h-6.97V0.24z"/>
	<path class="st0" d="M48.49,0.24h1.7l5.07,11.68V0.24h2.07v17.59h-1.59L50.6,5.82v12.01h-2.12V0.24z"/>
	<path class="st0" d="M59.81,0.24h6.92v1.82H62.3v5.82h3.59v1.74H62.3v6.45h4.48v1.76h-6.97V0.24z"/>
	<path class="st0" d="M68.77,0.24h3.59c1.81,0,3.14,0.36,3.98,1.1s1.27,1.92,1.27,3.57c0,2.26-0.74,3.62-2.21,4.1l2.54,8.82h-2.4
		L73.2,9.57h-1.94v8.25h-2.49V0.24z M72.21,7.82c1.07,0,1.84-0.21,2.3-0.63c0.46-0.42,0.7-1.18,0.7-2.28c0-0.72-0.08-1.29-0.24-1.7
		s-0.45-0.72-0.86-0.91C73.69,2.1,73.11,2,72.36,2h-1.1v5.82H72.21z"/>
	<path class="st0" d="M80.81,16.53c-0.72-1.01-1.08-2.5-1.08-4.48V6.17c0-1.36,0.14-2.48,0.43-3.35c0.29-0.88,0.78-1.55,1.48-2.02
		c0.7-0.47,1.66-0.71,2.88-0.71c1.65,0,2.83,0.41,3.56,1.24c0.73,0.82,1.09,2.12,1.09,3.89v0.65h-2.34V5.32
		c0-0.84-0.05-1.49-0.15-1.94c-0.1-0.46-0.32-0.8-0.65-1.03C85.69,2.11,85.21,2,84.56,2c-0.69,0-1.2,0.16-1.54,0.47
		c-0.34,0.31-0.55,0.73-0.65,1.25c-0.1,0.52-0.14,1.22-0.14,2.09v6.51c0,1.35,0.17,2.31,0.5,2.9c0.33,0.59,0.97,0.88,1.91,0.88
		c0.93,0,1.56-0.32,1.91-0.96c0.34-0.64,0.52-1.66,0.52-3.06v-1.22h-2.27V9.12h4.52v8.71h-1.56l-0.24-2.02
		c-0.56,1.49-1.62,2.24-3.17,2.24C82.7,18.04,81.53,17.54,80.81,16.53z"/>
	<path class="st0" d="M94.28,11.62L90.42,0.24h2.32l2.73,8.49l2.69-8.49h2.34l-3.84,11.38v6.21h-2.38V11.62z"/>
</g>
</symbol><symbol id="logo--tablet" viewBox="0 0 172.26 57.07">
<style type="text/css">
	.st0{fill:#FDC305;}
	.st1{fill:#F06351;}
	.st2{fill:#E55645;}
	.st3{fill:#111111;}
	.st4{fill:#444444;}
</style>
<path class="st0" d="M59.62,21.74C54.2,8.75,39.26,2.61,26.27,8.04S7.14,28.4,12.57,41.4c3.57,8.55,11.25,14.12,19.79,15.4
	c-0.58-2.08-1.16-4.38-1.68-6.83c1.49,0.99,3.08,1.8,4.75,2.54c-0.01,0-0.01,0.01-0.02,0.01c0,0,0.12,2.15,0.28,4.55
	c1.77,0.03,3.55-0.13,5.32-0.48c-0.04-0.16-0.04-0.4,0.01-0.76c0.29-1.85,1.09-5.21,1.24-7.38c1.12-1.06,2.13-2.32,2.89-3.7
	c0,0.01,0,0.02,0,0.04c-0.02,0.14-0.04,0.29-0.05,0.43c-0.55,4.25-1.7,8.78-2.39,10.03c-0.24,0.44-0.54,0.85-0.83,1.15
	c1.36-0.32,2.72-0.75,4.05-1.31C58.92,49.66,65.05,34.73,59.62,21.74z M58.15,25.51c-0.43,0.43-1.34,0.72-1.49-0.58
	c-0.14-1.3-0.19-2.21-0.19-2.21s-1.92-3.41-2.64-3.45c-0.72-0.05-5.81,3.45-7.15,4.94c-1.16,1.28-1.39,1.2-1.39,3.45
	c0,1.71,0.22,8.13,0.1,13.05v0v0c0,0-2.16,0.58-8.11,2.16c-5.95,1.58-7.77,1.78-7.77,1.78l-1.01-5.81c0,0,0,0,0,0
	c-0.01,0-0.02,0-0.04-0.01c0,0,0,0,0,0c-0.01,0-0.02,0-0.03-0.01c-0.01,0-0.03,0-0.05-0.01l0,0L25.81,25.7c0,0-3.79-1.44-5.18-1.82
	c-1.39-0.38-2.26-0.67-4.03,0.62c-1.78,1.3-1.73,3.84-1.73,3.84s0.43,0.96,0.48,1.44c0.05,0.48-1.2,0.43-2.02,0.43
	s-0.91-1.44-0.29-3.12c0.62-1.68,1.92-3.69,1.92-3.69s1.2-2.26,2.06-2.88c0,0,0.14-0.34,1.25-0.24c1.1,0.1,7.25,0.43,7.25,0.43
	l0.05-2.26c6.66-0.91,13.43-1.37,20.16-1.33c-0.01,0.61-0.03,1.21-0.06,1.82c0,0,4.37-2.02,8.11-1.97c0,0,0.43-0.05,0.77,0.38
	c0.34,0.43,2.4,2.97,2.64,3.36c0.24,0.38,1.2,1.73,1.82,3.02C59.02,23.73,58.58,25.08,58.15,25.51z"/>
<path class="st1" d="M56.21,19.43c0.47,0.6,0.88,1.12,0.98,1.28c0.24,0.38,1.2,1.73,1.82,3.02c0,0-0.43,1.34-0.86,1.78
	c-0.43,0.43-1.34,0.72-1.49-0.58c-0.14-1.3-0.19-2.21-0.19-2.21s-1.92-3.41-2.64-3.45c-0.72-0.05-5.81,3.45-7.15,4.94
	c-1.16,1.28-1.39,1.2-1.39,3.45c0,1.5,0.17,6.62,0.13,11.18c1.8,0.21,4.45,0.71,5.25,1.87c0,0-0.29-7.15,7.77-3.41
	c0,0,0.29-9.74,11.42-7.25C69.86,30.07,64.22,23.14,56.21,19.43z"/>
<path class="st1" d="M45.74,17.11c0.15-8.48-1.4-16.46-1.4-16.46s-0.14-1.3-0.86-0.24c-0.72,1.06-1.2,3.93-1.2,3.93
	c-7.44-0.43-12.76,0.34-12.76,0.34c-0.82-2.73-2.21-3.93-2.88-3.65c-0.67,0.29-0.72,3.31-0.72,3.31l-0.33,14.1
	C32.24,17.54,39.01,17.08,45.74,17.11z"/>
<path class="st2" d="M45.15,44.76c0.13-1.06,0.2-2.47,0.24-4.04c0,0-2.16,0.58-8.11,2.16c-5.95,1.58-7.77,1.78-7.77,1.78l1.1,4.99
	c0.02,0.11,0.05,0.22,0.07,0.32c1.49,0.99,3.08,1.8,4.75,2.54c4.35-2.16,6.84-4.12,6.84-4.12c0,0.02,0,0.04,0,0.06
	C43.39,47.4,44.39,46.14,45.15,44.76z"/>
<path d="M31.86,13.99c-0.05-0.09,1.02,0.68,1.41,0.92s0.61,0.42,0.61,0.59s-0.26,0.34-0.62,0.34s-0.91-0.12-0.96-0.26
	c0,0,0.6-0.02,0.94-0.02h0.29C33.51,15.55,32.12,14.52,31.86,13.99z"/>
<path d="M39.33,14.11c0,0-1.05,1.27-1.09,1.33s-0.17,0.34,0.19,0.29s1.11-0.22,1.22-0.28s0.07-0.2-0.12-0.18
	c-0.2,0.02-0.68,0.05-0.98,0.11l0.84-1.26C39.39,14.12,39.41,14,39.33,14.11z"/>
<path d="M36.2,20.19c0,0,0.81-0.35,1.09-1.01s0.04-0.91-0.44-0.98c-0.48-0.07-1.34-0.03-1.74,0.34c-0.4,0.37-0.34,0.73-0.05,0.95
	C35.34,19.73,35.9,20.1,36.2,20.19z"/>
<path class="st1" d="M35.79,21.44c0,0-0.18,0.37-0.46,0.59c-0.24,0.19-0.57,0.36-1.02,0.39c-0.64,0.03-1.06-0.17-1.45-0.45
	c-0.2-0.14-0.4-0.25-0.53-0.44c-0.16-0.18-0.36-0.25-0.36-0.25s0.75,4.1,2.56,4.74c1.82,0.65,2.14-0.75,2.2-1.13
	c0.05-0.33,0-2.08-0.82-3.22C35.91,21.37,35.89,21.58,35.79,21.44z"/>
<g>
	<path d="M34.15,22.58c-0.01,0-0.01,0-0.02,0c-1.29-0.01-2.29-1.36-2.33-1.42c-0.05-0.06-0.03-0.15,0.03-0.2
		c0.06-0.05,0.15-0.03,0.2,0.03c0.01,0.01,0.96,1.29,2.1,1.3c0,0,0.01,0,0.01,0c0.58,0,1.13-0.33,1.63-0.99l0.14-0.19l0.1,0.21
		c0,0.01,0.37,0.76,0.99,0.79c0.5,0.03,1.05-0.41,1.62-1.28c0.04-0.07,0.13-0.09,0.2-0.04c0.07,0.04,0.09,0.13,0.04,0.2
		c-0.63,0.97-1.26,1.45-1.88,1.41c-0.56-0.04-0.94-0.49-1.12-0.76C35.36,22.26,34.78,22.58,34.15,22.58z"/>
</g>
<path class="st3" d="M41.05,29.22l-3.12,1.3l1.14-5.61l-7.47,9.72l3.12-1.3l-1.14,5.61L41.05,29.22z M33.7,33.02l4.11-5.39l-0.8,4
	l1.96-0.82l-4.11,5.39l0.8-4L33.7,33.02z"/>
<path class="st1" d="M45.68,18.92c0,0-2.54,2.24-5.06,5.19c-2.52,2.95-5.29,4.87-5.29,4.87c-0.22-0.53-1.62-1.51-1.62-1.51
	s-3.13-2.14-5.18-3.82c-1.18-0.97-2.35-2.17-3.12-3.01c-0.29-0.02-1.07-0.06-2.01-0.11c4.69,6.97,11.97,8.8,11.97,8.8
	c0.86-0.14,3.27-1.86,5.07-3.26s4.75-4.52,5.94-5.89c0.6-0.69,0.94-1.42,1.14-1.97C46.4,18.59,45.68,18.92,45.68,18.92z"/>
<path class="st1" d="M25.81,25.7c0,0-3.79-1.44-5.18-1.82c-1.39-0.38-2.26-0.67-4.03,0.62c-1.78,1.3-1.73,3.84-1.73,3.84
	s0.43,0.96,0.48,1.44c0.05,0.48-1.2,0.43-2.02,0.43s-0.91-1.44-0.29-3.12c0.62-1.68,1.92-3.69,1.92-3.69C9.55,26.23,0,32.75,0,32.75
	s2.93-0.29,8.16,0.24c5.23,0.53,4.94,4.65,4.94,4.65s3.5-0.96,5.61-1.1c2.11-0.14,2.26,2.11,2.26,2.11l0.53,3.84
	c0,0,0.48-0.62,2.64-2.35c1.85-1.48,3.87-1.36,4.37-1.3l0,0L25.81,25.7z"/>
<g>
	<path class="st3" d="M89.56,37.12c-0.66-0.85-0.99-2.08-0.99-3.69v-5.34c0-1.64,0.33-2.89,0.98-3.73c0.66-0.84,1.78-1.26,3.38-1.26
		c1.52,0,2.6,0.37,3.23,1.11c0.63,0.74,0.95,1.81,0.95,3.19v1.25h-2.94v-1.38c0-0.44-0.02-0.8-0.06-1.07
		c-0.04-0.27-0.15-0.49-0.33-0.67c-0.18-0.18-0.45-0.27-0.82-0.27c-0.55,0-0.91,0.18-1.07,0.53c-0.16,0.36-0.24,0.88-0.24,1.56v6.77
		c0,0.7,0.09,1.22,0.28,1.56c0.18,0.34,0.53,0.52,1.03,0.52c0.52,0,0.85-0.17,0.99-0.52c0.15-0.35,0.22-0.87,0.22-1.56v-1.45h2.94
		v1.23c0,1.42-0.31,2.52-0.94,3.3c-0.63,0.78-1.71,1.17-3.24,1.17C91.34,38.4,90.22,37.97,89.56,37.12z"/>
	<path class="st3" d="M101.12,23.29h3.37l2.87,14.91h-2.8l-0.55-3.28h-2.36l-0.57,3.28h-2.85L101.12,23.29z M103.71,33.04l-0.9-6
		l-0.88,6H103.71z"/>
	<path class="st3" d="M109.51,25.54h-2.3v-2.25h7.62v2.25h-2.26V38.2h-3.05V25.54z"/>
	<path class="st4" d="M120.81,23.29h5.78v1.55h-3.7v4.93h3v1.47h-3v5.47h3.74v1.49h-5.82V23.29z"/>
	<path class="st4" d="M128.3,23.29h1.42l4.23,9.9v-9.9h1.73V38.2h-1.33l-4.29-10.18V38.2h-1.77V23.29z"/>
	<path class="st4" d="M138.01,23.29h5.78v1.55h-3.7v4.93h3v1.47h-3v5.47h3.74v1.49h-5.82V23.29z"/>
	<path class="st4" d="M145.51,23.29h3c1.51,0,2.62,0.31,3.32,0.93c0.71,0.62,1.06,1.63,1.06,3.03c0,1.91-0.61,3.07-1.84,3.48
		l2.12,7.47h-2.01l-1.95-6.99h-1.62v6.99h-2.08V23.29z M148.38,29.71c0.9,0,1.54-0.18,1.92-0.53c0.39-0.36,0.58-1,0.58-1.93
		c0-0.61-0.07-1.09-0.2-1.44c-0.13-0.35-0.37-0.61-0.72-0.77c-0.34-0.17-0.83-0.25-1.45-0.25h-0.92v4.93H148.38z"/>
	<path class="st4" d="M155.68,37.1c-0.6-0.85-0.9-2.12-0.9-3.8v-4.99c0-1.15,0.12-2.1,0.36-2.84c0.24-0.74,0.65-1.31,1.23-1.71
		c0.58-0.4,1.38-0.6,2.4-0.6c1.37,0,2.36,0.35,2.97,1.05c0.61,0.7,0.91,1.8,0.91,3.29v0.55h-1.95V27.6c0-0.71-0.04-1.26-0.13-1.65
		c-0.09-0.39-0.27-0.68-0.54-0.87c-0.28-0.2-0.68-0.29-1.22-0.29c-0.58,0-1.01,0.13-1.29,0.4c-0.28,0.26-0.46,0.62-0.54,1.06
		c-0.08,0.44-0.12,1.03-0.12,1.77v5.52c0,1.14,0.14,1.96,0.41,2.46c0.28,0.5,0.81,0.75,1.59,0.75c0.77,0,1.3-0.27,1.59-0.81
		c0.29-0.54,0.43-1.4,0.43-2.59v-1.03H159v-1.47h3.77v7.38h-1.31l-0.2-1.71c-0.47,1.26-1.35,1.9-2.65,1.9
		C157.26,38.38,156.28,37.96,155.68,37.1z"/>
	<path class="st4" d="M167.07,32.93l-3.22-9.64h1.93l2.28,7.2l2.25-7.2h1.95l-3.2,9.64v5.26h-1.99V32.93z"/>
</g>
</symbol><symbol id="toggle--close" viewBox="0 0 18 18">
<polygon points="18,1.3 16.7,0 9,7.7 1.3,0 0,1.3 7.7,9 0,16.7 1.3,18 9,10.3 16.7,18 18,16.7 10.3,9 "/>
</symbol><symbol id="toggle--open" viewBox="0 0 24 18">
<rect y="16" width="24" height="2"/>
<rect y="8" width="24" height="2"/>
<rect width="24" height="2"/>
</symbol></svg>