<?xml version="1.0" encoding="UTF-8"?><!DOCTYPE svg PUBLIC "-//W3C//DTD SVG 1.1//EN" "http://www.w3.org/Graphics/SVG/1.1/DTD/svg11.dtd"><svg xmlns="http://www.w3.org/2000/svg" xmlns:xlink="http://www.w3.org/1999/xlink"><defs><style>.cls-1{fill:#69b53b;}</style></defs><symbol id="gift-icon" viewBox="0 0 55.5 60">
<path fill="#FFFFFF" d="M52.3,12.2h-7c0.5-0.7,0.8-1.4,1.1-2.2c0.6-2,0.4-4.1-0.6-5.9c-1-1.8-2.6-3.1-4.6-3.7
	c-2-0.6-4.1-0.4-5.9,0.6c-3.6,2-6.2,6.1-7.6,9c-1.4-2.9-4-7.1-7.6-9c-3.8-2-8.5-0.6-10.5,3.1c-1.4,2.7-1.2,5.8,0.5,8.1h-7
	c-1.7,0-3.1,1.4-3.1,3.1v9.4c0,1.7,1.4,3.1,3.1,3.1H4v26.1c0,3.3,2.7,6,6,6h35.5c3.3,0,6-2.7,6-6V27.8h0.8c1.7,0,3.1-1.4,3.1-3.1
	v-9.4C55.5,13.6,54.1,12.2,52.3,12.2z M36.5,3c1.3-0.7,2.7-0.8,4.1-0.4C41.9,3,43,3.9,43.7,5.2c0.7,1.3,0.8,2.7,0.4,4.1
	c-0.4,1.2-1.1,2.2-2.2,2.9H29.4C30.5,9.6,33,5,36.5,3z M11.7,5.2C13.2,2.6,16.4,1.6,19,3c3.5,1.9,6,6.6,7.1,9.1H13.5
	C11.2,10.7,10.4,7.6,11.7,5.2z M26.5,27.8v13.7H6.4V27.8H26.5z M6.4,53.9v-10h20.2v13.7H10C8,57.6,6.4,55.9,6.4,53.9z M45.5,57.6
	H28.9V43.9h20.2v10C49.1,55.9,47.5,57.6,45.5,57.6z M49.1,41.5H28.9V27.8h20.2V41.5z M53.1,24.7c0,0.4-0.3,0.7-0.7,0.7h-2
	c0,0,0,0,0,0s0,0,0,0H27.7c0,0,0,0,0,0s0,0,0,0H5.2c0,0,0,0,0,0s0,0,0,0h-2c-0.4,0-0.7-0.3-0.7-0.7v-9.4c0-0.4,0.3-0.7,0.7-0.7h49.2
	c0.4,0,0.7,0.3,0.7,0.7V24.7z"/>
</symbol><symbol id="copyright-emblem" viewBox="0 0 26.9 34.1">
<path d="M13.6,0l-0.1,0L0,1.4v24.7l13.5,8l13.4-8l0,0V1.4L13.6,0z M25,12.1L13.5,5.3l0-0.1l-0.1,0l-0.1-0.1v0.1L1.9,12.1v-9
	l11.5-1.2L25,3.1L25,12.1L25,12.1z M13.4,6.8l11.5,6.7l-4.5,2.6l-7.1-4.2l0,1.4l5.9,3.5l-0.9,0.5l-5-3l0,1.4l3.8,2.3l-0.8,0.5
	l-3-1.8l0,1.4l1.9,1.1l-1.8,1.1L2,13.6L13.4,6.8z M1.9,15.1l11.4,6.8l0,1l-7.9-4.7l0,1.4l8,4.8l0,1.1l-8-4.7l0,1.4l8,4.8l0,0
	l8.1-4.9l0-5.2l3.4-2v10l-11.5,6.9L1.9,25V15.1z"/>
</symbol><symbol id="facebook" viewBox="0 0 10 19">
<g>
	<path d="M7.1,19H2v-8.8H0V5.8h1.9c-0.1-2,0.2-3.4,1.1-4.4C3.8,0.5,5,0.1,6.5,0L10,0v4.2H7.2C7.1,4.4,7,5,7,5.8H10v4.4H7.1V19z
		 M3.1,18h2.8V9.1h2.9V6.8H5.9l0-0.5c0-1.4,0-2.6,0.7-3.1l0.1-0.1h2.1V1H6.5c-1.2,0.1-2,0.4-2.6,1c-0.8,0.8-1,2.3-0.8,4.2l0.1,0.6
		H1.1v2.3h2V18z"/>
</g>
</symbol><symbol id="footer-logo" viewBox="0 0 127.8 23.4">
<g>
	<path fill="#111111" d="M1.6,21.5c-1-1.3-1.6-3.2-1.6-5.6V7.6c0-2.5,0.5-4.4,1.5-5.7C2.6,0.6,4.3,0,6.8,0c2.4,0,4.1,0.6,5.1,1.7
		s1.5,2.8,1.5,4.9v2H8.5V6.3c0-0.9-0.1-1.6-0.3-2S7.6,3.5,6.8,3.5c-0.7,0-1.2,0.2-1.4,0.7S5.1,5.5,5.1,6.4v10.7
		c0,0.9,0.1,1.6,0.4,2.1c0.2,0.5,0.7,0.7,1.4,0.7s1.1-0.2,1.3-0.7s0.3-1.2,0.3-2.1v-2.4h4.9v2c0,2.1-0.5,3.8-1.5,5s-2.7,1.8-5.1,1.8
		C4.4,23.4,2.6,22.8,1.6,21.5z"/>
	<path fill="#111111" d="M19.3,0.3H25l4.2,22.8h-4.6l-0.8-4.8h-3.3l-0.8,4.8H15L19.3,0.3z M23.4,15.3l-1.2-8.9L21,15.3H23.4z"/>
	<path fill="#111111" d="M32.7,4.1h-3.4V0.3h11.9V4h-3.4v19.1h-5.1V4.1z"/>
	<path fill="#111111" d="M50.3,0.3h8.8v2.4h-5.7v7.5H58v2.3h-4.6v8.4h5.7v2.3h-8.9V0.3H50.3z"/>
	<path fill="#111111" d="M61.7,0.3h2.2l6.5,15.1V0.3H73v22.8h-2L64.4,7.5v15.6h-2.7V0.3z"/>
	<path fill="#111111" d="M76,0.3h8.8v2.4h-5.7v7.5h4.6v2.3h-4.6v8.4h5.7v2.3H76V0.3z"/>
	<path fill="#111111" d="M87.4,0.3H92c2.3,0,4,0.5,5.1,1.4s1.6,2.5,1.6,4.6c0,2.9-0.9,4.7-2.8,5.3L99.1,23H96l-3-10.7h-2.5V23h-3.2
		L87.4,0.3L87.4,0.3z M91.8,10.1c1.4,0,2.3-0.3,2.9-0.8s0.9-1.5,0.9-3c0-0.9-0.1-1.7-0.3-2.2c-0.2-0.5-0.6-0.9-1.1-1.2
		S92.9,2.5,92,2.5h-1.4V10h1.2V10.1z"/>
	<path fill="#111111" d="M102.7,21.4c-0.9-1.3-1.4-3.2-1.4-5.8V8c0-1.8,0.2-3.2,0.5-4.3c0.4-1.1,1-2,1.9-2.6s2.1-0.9,3.7-0.9
		c2.1,0,3.6,0.5,4.5,1.6s1.4,2.7,1.4,5v0.8h-3V6.9c0-1.1-0.1-1.9-0.2-2.5s-0.4-1-0.8-1.3s-1-0.5-1.9-0.5s-1.5,0.2-2,0.6
		s-0.7,0.9-0.8,1.6s-0.2,1.6-0.2,2.7V16c0,1.7,0.2,3,0.6,3.8s1.2,1.1,2.4,1.1c1.2,0,2-0.4,2.4-1.2c0.4-0.8,0.7-2.1,0.7-4v-1.6h-2.9
		v-2.3h5.8v11.3h-2l-0.3-2.6c-0.7,1.9-2.1,2.9-4.1,2.9C105.1,23.4,103.6,22.7,102.7,21.4z"/>
	<path fill="#111111" d="M119.8,15.1l-4.9-14.7h3l3.5,11l3.4-11h3l-4.9,14.7v8h-3L119.8,15.1L119.8,15.1z"/>
</g>
</symbol><symbol id="instagram" viewBox="0 0 16 16.01"><title>instagram</title><path d="M11.83,1A3.14,3.14,0,0,1,15,4.18v7.65A3.13,3.13,0,0,1,11.83,15H4.17A3.13,3.13,0,0,1,1,11.83V4.18A3.14,3.14,0,0,1,4.17,1h7.66m0-1H4.17A4.19,4.19,0,0,0,0,4.18v7.65A4.19,4.19,0,0,0,4.17,16h7.66A4.19,4.19,0,0,0,16,11.83V4.18A4.19,4.19,0,0,0,11.83,0Z"/><path d="M8,4.93A3.08,3.08,0,1,1,4.92,8,3.08,3.08,0,0,1,8,4.93m0-1A4.13,4.13,0,1,0,12.12,8,4.13,4.13,0,0,0,8,3.88Z"/><circle cx="12.27" cy="3.74" r="0.93"/></symbol><symbol id="vk" viewBox="0 0 22 12">
<g>
	<path d="M17.6,12c-0.3,0-0.9-0.1-1.5-0.5c-0.5-0.3-0.9-0.7-1.3-1.2c-0.3-0.3-0.9-0.9-1.1-0.9c-0.2,0.1-0.4,0.7-0.3,1.2
		c0,0.1,0,0.6-0.3,0.9c-0.3,0.3-0.8,0.4-0.9,0.4l-1.4,0c-0.7,0-3.2-0.2-5.4-2.3C2.5,7.1,0.2,2.2,0.1,2C0,1.6-0.1,1.2,0.2,0.9
		c0.3-0.3,0.8-0.4,1-0.4l3,0l0.1,0c0.1,0,0.4,0.1,0.7,0.3c0.3,0.2,0.4,0.5,0.5,0.6c0,0,0.5,1.1,1.1,2c1,1.5,1.4,1.9,1.5,2
		C8.2,5,8.3,4,8.2,3.1c0-0.4-0.1-0.8-0.2-1C7.9,2,7.7,1.9,7.5,1.9L6.9,1.4C6.9,0.9,7.4,0.5,7.8,0.3C8.3,0.1,9.1,0,10.1,0l0.5,0
		c0.9,0,1.2,0.1,1.6,0.1c1.2,0.3,1.2,1.3,1.1,2.5c0,0.4,0,0.8,0,1.2c0,0.1,0,0.2,0,0.4c0,0.3,0,0.8,0.1,1c0.2-0.1,0.6-0.5,1.5-1.9
		c0.6-0.9,1-1.9,1.1-2.1l0,0c0.1-0.3,0.4-0.7,1.2-0.7l3.1,0c0,0,0.1,0,0.3,0c0.7,0,1.2,0.2,1.3,0.7c0.2,0.5,0.1,1.3-1.7,3.5
		c-0.3,0.3-0.5,0.6-0.7,0.9C19,6,18.6,6.6,18.6,6.7c0,0.1,0.5,0.5,0.9,0.9c1.1,0.9,1.9,1.7,2.2,2.3c0.4,0.6,0.3,1,0.2,1.3
		c-0.3,0.7-1.2,0.7-1.4,0.8l-2.8,0C17.7,12,17.6,12,17.6,12z M13.7,8.3c0.7,0,1.2,0.6,1.8,1.2c0.4,0.4,0.7,0.8,1.1,1
		c0.5,0.3,1,0.3,1,0.3l0.1,0l2.8,0c0.1,0,0.3-0.1,0.4-0.1c0,0,0-0.1-0.1-0.1c-0.3-0.5-1-1.3-2-2.1c-0.9-0.7-1.3-1.1-1.4-1.7
		c0-0.6,0.4-1.1,1.2-2.1c0.2-0.2,0.4-0.5,0.7-0.8c1.1-1.4,1.4-2,1.5-2.3c-0.1,0-0.5,0-0.5,0l-3.2,0c-0.1,0-0.2,0-0.2,0
		C16.9,2,16.4,3.1,15.8,4c-1.4,2.1-2,2.4-2.5,2.4c-0.1,0-0.3,0-0.4-0.1c-0.7-0.4-0.7-1.4-0.7-2.1c0-0.1,0-0.2,0-0.3
		c0-0.5,0-0.9,0-1.3c0.1-1.3,0-1.3-0.3-1.4c-0.3-0.1-0.5-0.1-1.4-0.1l-0.5,0c-0.5,0-1,0-1.4,0.1c0.1,0.1,0.1,0.1,0.2,0.2
		c0.4,0.5,0.4,1.5,0.4,1.7c0.1,1.3,0,2.9-0.7,3.3C8.4,6.4,8.3,6.5,8.1,6.5C7.5,6.5,6.8,5.8,5.6,4C5,2.9,4.5,1.8,4.5,1.8
		c0,0,0-0.1-0.1-0.1c-0.1,0-0.2-0.1-0.2-0.1l-2.9,0c0,0,0,0-0.1,0c0.4,0.9,2.5,5,4.8,7.2c2,1.9,4.3,2,4.7,2l1.4,0c0,0,0.2,0,0.2-0.1
		c0,0,0,0,0-0.1c0-0.2,0-2,1.2-2.3C13.5,8.3,13.6,8.3,13.7,8.3z"/>
</g>
</symbol><symbol id="mail-icon" viewBox="0 0 17 13">
<path d="M15.6,11.6H1.4V5.8H0V13h17V5.8h-1.4V11.6z M0,0v2.3l8.5,7.1L17,2.3V0H0z M15.6,1.6L8.5,7.5L1.4,1.6V1.4h14.2L15.6,1.6z"/>
</symbol><symbol id="phone-icon" viewBox="0 0 20 20">
<path d="M17.9,9.4H9.4v1.2h8.5l-2.1,2.1l0.9,0.9l3.1-3.1c0.2-0.2,0.2-0.6,0-0.9l-3.1-3.1l-0.9,0.9L17.9,9.4z"/>
<path d="M8.1,19.4v-6.2c0-0.3-0.3-0.6-0.6-0.6H4.4l0,0H3.1l0,0c0,0.7,0.6,1.2,1.2,1.2h2.5v5H3.1c-1,0.1-1.8-0.7-1.9-1.7
	c0-0.1,0-0.1,0-0.2V3.1c0-1,0.8-1.8,1.7-1.8c0.1,0,0.1,0,0.2,0h3.7v5H4.4c-0.7,0-1.2,0.6-1.2,1.2h4.4c0.3,0,0.6-0.3,0.6-0.6V0.6
	C8.1,0.3,7.8,0,7.5,0H3.1C1.5-0.1,0.1,1.2,0,2.9C0,3,0,3.1,0,3.1v13.7c-0.1,1.7,1.2,3.1,2.9,3.1c0.1,0,0.2,0,0.2,0h4.4
	C7.8,20,8.1,19.7,8.1,19.4z"/>
</symbol><symbol id="emblem--mobile" viewBox="0 0 33.3 37.6">
<g>
	<path fill="#FDC305" d="M6.1,20.7l0.1-2.3c6.7-0.9,13.4-1.4,20.2-1.3c0,0.6,0,1.2-0.1,1.8c0,0,2.9-1.3,6-1.8
		c-2.4-6.3-8.5-10.8-15.6-10.8c-8.3,0-15.2,6.1-16.5,14.1C2.4,20.5,6.1,20.7,6.1,20.7z"/>
	<path fill="#FDC305" d="M27.2,24.2c-1.2,1.3-1.4,1.2-1.4,3.5c0,0.9,0,4.9,0,9.2c4.5-3,7.4-8.1,7.4-13.9c0-1.1-0.1-2.1-0.3-3.1
		C31.2,21,28.2,23.1,27.2,24.2z"/>
	<path fill="#FDC305" d="M6.4,25.7c0,0-3.8-1.4-5.2-1.8c-0.4-0.1-0.8-0.2-1.2-0.3c0.2,6,3.7,11.3,8.7,14L6.4,25.7z"/>
</g>
<path fill="#F06351" d="M26.3,17.1c0.1-8.5-1.4-16.5-1.4-16.5S24.7-0.6,24,0.4c-0.7,1.1-1.2,3.9-1.2,3.9c-7.4-0.4-12.8,0.3-12.8,0.3
	C9.2,2,7.9,0.8,7.2,1C6.5,1.3,6.5,4.4,6.5,4.4L6.1,18.5C12.8,17.5,19.6,17.1,26.3,17.1z"/>
<path d="M12.4,14c0-0.1,1,0.7,1.4,0.9c0.4,0.2,0.6,0.4,0.6,0.6c0,0.2-0.3,0.3-0.6,0.3s-0.9-0.1-1-0.3c0,0,0.6,0,0.9,0h0.3
	C14.1,15.6,12.7,14.5,12.4,14z"/>
<path d="M19.9,14.1c0,0-1,1.3-1.1,1.3c0,0.1-0.2,0.3,0.2,0.3s1.1-0.2,1.2-0.3c0.1-0.1,0.1-0.2-0.1-0.2c-0.2,0-0.7,0-1,0.1L19.9,14.1
	C19.9,14.1,20,14,19.9,14.1z"/>
<path d="M16.8,20.2c0,0,0.8-0.4,1.1-1c0.3-0.7,0-0.9-0.4-1c-0.5-0.1-1.3,0-1.7,0.3c-0.4,0.4-0.3,0.7-0.1,1
	C15.9,19.7,16.5,20.1,16.8,20.2z"/>
<path fill="#F06351" d="M16.3,21.5c0,0-0.2,0.4-0.5,0.6c-0.2,0.2-0.6,0.4-1,0.4c-0.6,0-1.1-0.2-1.5-0.4c-0.2-0.1-0.4-0.3-0.5-0.4
	c-0.2-0.2-0.4-0.3-0.4-0.3s0.7,4.1,2.6,4.7c1.8,0.6,2.1-0.7,2.2-1.1c0-0.3,0-2.1-0.8-3.2C16.5,21.4,16.4,21.6,16.3,21.5z"/>
<g>
	<path d="M14.7,22.6C14.7,22.6,14.7,22.6,14.7,22.6c-1.3,0-2.3-1.4-2.3-1.4c0-0.1,0-0.2,0-0.2c0.1,0,0.2,0,0.2,0c0,0,1,1.3,2.1,1.3
		c0,0,0,0,0,0c0.6,0,1.1-0.3,1.6-1l0.1-0.2l0.1,0.2c0,0,0.4,0.8,1,0.8c0.5,0,1.1-0.4,1.6-1.3c0-0.1,0.1-0.1,0.2,0
		c0.1,0,0.1,0.1,0,0.2c-0.6,1-1.3,1.4-1.9,1.4c-0.6,0-0.9-0.5-1.1-0.8C15.9,22.3,15.3,22.6,14.7,22.6z"/>
</g>
<path fill="#F06351" d="M26.2,18.9c0,0-2.5,2.2-5.1,5.2S15.9,29,15.9,29c-0.2-0.5-1.6-1.5-1.6-1.5s-3.1-2.1-5.2-3.8
	c-1.2-1-2.3-2.2-3.1-3c-0.3,0-1.1-0.1-2-0.1c4.7,7,12,8.8,12,8.8c0.9-0.1,3.3-1.9,5.1-3.3c1.8-1.4,4.8-4.5,5.9-5.9
	c0.6-0.7,0.9-1.4,1.1-2C27,18.6,26.2,18.9,26.2,18.9z"/>
</symbol><symbol id="logo--desktop" viewBox="0 0 202 59.5">
<path fill="#FDC305" d="M59.9,24c-5.5-13-20.5-19.2-33.5-13.8S7.2,30.7,12.6,43.7c3.6,8.6,11.3,14.2,19.9,15.5
	c-0.6-2.1-1.2-4.4-1.7-6.9c1.5,1,3.1,1.8,4.8,2.6c0,0,0,0,0,0c0,0,0.1,2.2,0.3,4.6c1.8,0,3.6-0.1,5.3-0.5c0-0.2,0-0.4,0-0.8
	c0.3-1.9,1.1-5.2,1.2-7.4c1.1-1.1,2.1-2.3,2.9-3.7c0,0,0,0,0,0c0,0.1,0,0.3-0.1,0.4c-0.6,4.3-1.7,8.8-2.4,10.1
	c-0.2,0.4-0.5,0.9-0.8,1.2c1.4-0.3,2.7-0.8,4.1-1.3C59.2,52,65.3,37,59.9,24z M58.4,27.8c-0.4,0.4-1.3,0.7-1.5-0.6S56.7,25,56.7,25
	s-1.9-3.4-2.7-3.5c-0.7,0-5.8,3.5-7.2,5c-1.2,1.3-1.4,1.2-1.4,3.5c0,1.7,0.2,8.2,0.1,13.1v0v0c0,0-2.2,0.6-8.1,2.2
	c-6,1.6-7.8,1.8-7.8,1.8l-1-5.8c0,0,0,0,0,0c0,0,0,0,0,0c0,0,0,0,0,0c0,0,0,0,0,0c0,0,0,0,0,0c0,0,0,0,0,0L25.9,28
	c0,0-3.8-1.4-5.2-1.8c-1.4-0.4-2.3-0.7-4,0.6c-1.8,1.3-1.7,3.9-1.7,3.9s0.4,1,0.5,1.4c0,0.5-1.2,0.4-2,0.4s-0.9-1.4-0.3-3.1
	c0.6-1.7,1.9-3.7,1.9-3.7s1.2-2.3,2.1-2.9c0,0,0.1-0.3,1.3-0.2c1.1,0.1,7.3,0.4,7.3,0.4l0.1-2.3c6.7-0.9,13.5-1.4,20.2-1.3
	c0,0.6,0,1.2-0.1,1.8c0,0,4.4-2,8.1-2c0,0,0.4,0,0.8,0.4c0.3,0.4,2.4,3,2.7,3.4c0.2,0.4,1.2,1.7,1.8,3C59.3,26,58.8,27.3,58.4,27.8z
	"/>
<path fill="#F06351" d="M56.5,21.7c0.5,0.6,0.9,1.1,1,1.3c0.2,0.4,1.2,1.7,1.8,3c0,0-0.4,1.3-0.9,1.8s-1.3,0.7-1.5-0.6
	S56.7,25,56.7,25s-1.9-3.4-2.7-3.5c-0.7,0-5.8,3.5-7.2,5c-1.2,1.3-1.4,1.2-1.4,3.5c0,1.5,0.2,6.6,0.1,11.2c1.8,0.2,4.5,0.7,5.3,1.9
	c0,0-0.3-7.2,7.8-3.4c0,0,0.3-9.8,11.5-7.3C70.2,32.4,64.5,25.4,56.5,21.7z"/>
<path fill="#F06351" d="M45.9,19.4c0.1-8.5-1.4-16.5-1.4-16.5s-0.1-1.3-0.9-0.2c-0.7,1.1-1.2,4-1.2,4C35,6.1,29.6,6.9,29.6,6.9
	c-0.8-2.7-2.2-4-2.9-3.7C26.1,3.5,26,6.5,26,6.5l-0.3,14.2C32.4,19.8,39.2,19.3,45.9,19.4z"/>
<path fill="#E55645" d="M45.4,47.1c0.1-1.1,0.2-2.5,0.2-4.1c0,0-2.2,0.6-8.1,2.2c-6,1.6-7.8,1.8-7.8,1.8l1.1,5c0,0.1,0,0.2,0.1,0.3
	c1.5,1,3.1,1.8,4.8,2.6c4.4-2.2,6.9-4.1,6.9-4.1c0,0,0,0,0,0.1C43.6,49.8,44.6,48.5,45.4,47.1z"/>
<path d="M32,16.2c0-0.1,1,0.7,1.4,0.9c0.4,0.2,0.6,0.4,0.6,0.6c0,0.2-0.3,0.3-0.6,0.3s-0.9-0.1-1-0.3c0,0,0.6,0,0.9,0h0.3
	C33.7,17.8,32.3,16.7,32,16.2z"/>
<path d="M39.5,16.3c0,0-1.1,1.3-1.1,1.3c0,0.1-0.2,0.3,0.2,0.3c0.4,0,1.1-0.2,1.2-0.3c0.1-0.1,0.1-0.2-0.1-0.2c-0.2,0-0.7,0-1,0.1
	L39.5,16.3C39.6,16.3,39.6,16.2,39.5,16.3z"/>
<path d="M36.4,22.4c0,0,0.8-0.4,1.1-1c0.3-0.7,0-0.9-0.4-1s-1.3,0-1.7,0.3c-0.4,0.4-0.3,0.7-0.1,1C35.5,22,36.1,22.4,36.4,22.4z"/>
<path fill="#F06351" d="M35.9,23.7c0,0-0.2,0.4-0.5,0.6c-0.2,0.2-0.6,0.4-1,0.4c-0.6,0-1.1-0.2-1.5-0.4c-0.2-0.1-0.4-0.3-0.5-0.4
	c-0.2-0.2-0.4-0.3-0.4-0.3s0.8,4.1,2.6,4.8c1.8,0.7,2.2-0.8,2.2-1.1c0-0.3,0-2.1-0.8-3.2C36.1,23.6,36,23.8,35.9,23.7z"/>
<g>
	<path d="M34.3,24.8C34.3,24.8,34.3,24.8,34.3,24.8c-1.3,0-2.3-1.4-2.4-1.4c0-0.1,0-0.2,0-0.2c0.1,0,0.2,0,0.2,0c0,0,1,1.3,2.1,1.3
		c0,0,0,0,0,0c0.6,0,1.1-0.3,1.6-1l0.1-0.2l0.1,0.2c0,0,0.4,0.8,1,0.8c0.5,0,1.1-0.4,1.6-1.3c0-0.1,0.1-0.1,0.2,0
		c0.1,0,0.1,0.1,0,0.2c-0.6,1-1.3,1.5-1.9,1.4c-0.6,0-0.9-0.5-1.1-0.8C35.5,24.5,34.9,24.8,34.3,24.8z"/>
</g>
<circle fill="#FDC305" cx="36.3" cy="34.5" r="3.8"/>
<path fill="#111111" d="M41.2,31.5l-3.1,1.3l1.1-5.6l-7.5,9.8l3.1-1.3l-1.1,5.6L41.2,31.5z M33.8,35.3l4.1-5.4l-0.8,4l2-0.8L35,38.5
	l0.8-4L33.8,35.3z"/>
<circle fill="#111111" cx="32.4" cy="32.7" r="1.1"/>
<circle fill="#111111" cx="39" cy="37.1" r="0.8"/>
<circle fill="#111111" cx="39.9" cy="35.4" r="0.3"/>
<path fill="#F06351" d="M45.9,21.2c0,0-2.6,2.3-5.1,5.2s-5.3,4.9-5.3,4.9c-0.2-0.5-1.6-1.5-1.6-1.5s-3.1-2.1-5.2-3.8
	c-1.2-1-2.4-2.2-3.1-3c-0.3,0-1.1-0.1-2-0.1c4.7,7,12,8.8,12,8.8c0.9-0.1,3.3-1.9,5.1-3.3c1.8-1.4,4.8-4.5,6-5.9
	c0.6-0.7,0.9-1.4,1.1-2C46.6,20.8,45.9,21.2,45.9,21.2z"/>
<polygon fill="#FDC305" points="65.2,3.5 56.8,12.9 55.5,10.9 63.7,0 "/>
<polygon fill="#FDC305" points="62.6,17.3 68.2,13.1 67.4,9.4 62,14.2 "/>
<polygon fill="#FDC305" points="59.9,49.4 66.1,52.6 69.1,50.2 62.4,47.5 "/>
<polygon fill="#FDC305" points="2,6 5,2.6 14.3,11.6 13.1,13.9 "/>
<polygon fill="#FDC305" points="7.4,16.3 2.7,13.2 0.3,17 5.4,19.4 "/>
<polygon fill="#FDC305" points="13.9,52.6 9.4,55.9 12.2,59.5 16.2,55.5 "/>
<path fill="#F06351" d="M25.9,28c0,0-3.8-1.4-5.2-1.8c-1.4-0.4-2.3-0.7-4,0.6c-1.8,1.3-1.7,3.9-1.7,3.9s0.4,1,0.5,1.4
	c0,0.5-1.2,0.4-2,0.4s-0.9-1.4-0.3-3.1c0.6-1.7,1.9-3.7,1.9-3.7c-5.4,2.8-15,9.4-15,9.4s2.9-0.3,8.2,0.2c5.3,0.5,5,4.7,5,4.7
	s3.5-1,5.6-1.1c2.1-0.1,2.3,2.1,2.3,2.1l0.5,3.9c0,0,0.5-0.6,2.7-2.4c1.9-1.5,3.9-1.4,4.4-1.3l0,0L25.9,28z"/>
<g>
	<path fill="#111111" d="M85.7,42c-0.9-1.2-1.4-2.9-1.4-5.2v-7.5c0-2.3,0.5-4.1,1.4-5.2c0.9-1.2,2.5-1.8,4.8-1.8
		c2.1,0,3.7,0.5,4.5,1.6c0.9,1,1.3,2.5,1.3,4.5v1.8h-4.1v-1.9c0-0.6,0-1.1-0.1-1.5c-0.1-0.4-0.2-0.7-0.5-0.9
		c-0.2-0.2-0.6-0.4-1.2-0.4c-0.8,0-1.3,0.3-1.5,0.8c-0.2,0.5-0.3,1.2-0.3,2.2v9.5c0,1,0.1,1.7,0.4,2.2c0.3,0.5,0.7,0.7,1.4,0.7
		c0.7,0,1.2-0.2,1.4-0.7c0.2-0.5,0.3-1.2,0.3-2.2v-2h4.1v1.7c0,2-0.4,3.6-1.3,4.6c-0.9,1.1-2.4,1.6-4.6,1.6
		C88.2,43.8,86.6,43.2,85.7,42z"/>
	<path fill="#111111" d="M101.9,22.6h4.7l4,21h-3.9l-0.8-4.6h-3.3l-0.8,4.6h-4L101.9,22.6z M105.6,36.3l-1.3-8.4l-1.2,8.4H105.6z"/>
	<path fill="#111111" d="M113.7,25.7h-3.2v-3.2h10.7v3.2H118v17.8h-4.3V25.7z"/>
	<path fill="#444444" d="M129.6,22.6h8.1v2.2h-5.2v6.9h4.2v2.1h-4.2v7.7h5.3v2.1h-8.2V22.6z"/>
	<path fill="#444444" d="M140.1,22.6h2l6,13.9V22.6h2.4v21h-1.9l-6-14.3v14.3h-2.5V22.6z"/>
	<path fill="#444444" d="M153.8,22.6h8.1v2.2h-5.2v6.9h4.2v2.1h-4.2v7.7h5.3v2.1h-8.2V22.6z"/>
	<path fill="#444444" d="M164.4,22.6h4.2c2.1,0,3.7,0.4,4.7,1.3c1,0.9,1.5,2.3,1.5,4.3c0,2.7-0.9,4.3-2.6,4.9l3,10.5h-2.8l-2.7-9.8
		h-2.3v9.8h-2.9V22.6z M168.4,31.6c1.3,0,2.2-0.2,2.7-0.8c0.5-0.5,0.8-1.4,0.8-2.7c0-0.9-0.1-1.5-0.3-2c-0.2-0.5-0.5-0.9-1-1.1
		c-0.5-0.2-1.2-0.3-2-0.3h-1.3v6.9H168.4z"/>
	<path fill="#444444" d="M178.7,42c-0.8-1.2-1.3-3-1.3-5.3v-7c0-1.6,0.2-3,0.5-4c0.3-1,0.9-1.8,1.7-2.4c0.8-0.6,1.9-0.8,3.4-0.8
		c1.9,0,3.3,0.5,4.2,1.5c0.9,1,1.3,2.5,1.3,4.6v0.8h-2.7v-0.6c0-1-0.1-1.8-0.2-2.3c-0.1-0.5-0.4-1-0.8-1.2c-0.4-0.3-1-0.4-1.7-0.4
		c-0.8,0-1.4,0.2-1.8,0.6c-0.4,0.4-0.7,0.9-0.8,1.5c-0.1,0.6-0.2,1.4-0.2,2.5V37c0,1.6,0.2,2.8,0.6,3.5c0.4,0.7,1.1,1,2.2,1
		c1.1,0,1.8-0.4,2.2-1.1c0.4-0.8,0.6-2,0.6-3.6v-1.4h-2.7v-2.1h5.3v10.4h-1.8l-0.3-2.4c-0.7,1.8-1.9,2.7-3.7,2.7
		C180.9,43.8,179.5,43.2,178.7,42z"/>
	<path fill="#444444" d="M194.7,36.1l-4.5-13.6h2.7l3.2,10.1l3.2-10.1h2.7l-4.5,13.6v7.4h-2.8V36.1z"/>
</g>
</symbol><symbol id="logo--mobile" viewBox="0 0 100.5 18.1">
<g>
	<path fill="#111111" d="M1.2,16.6c-0.8-1-1.2-2.5-1.2-4.4V5.9c0-1.9,0.4-3.4,1.2-4.4C2,0.5,3.4,0,5.4,0c1.9,0,3.2,0.4,4,1.3
		c0.8,0.9,1.2,2.1,1.2,3.8v1.5H6.6V4.8c0-0.7-0.1-1.2-0.2-1.6C6.3,2.9,5.9,2.7,5.4,2.7S4.4,2.9,4.3,3.3C4.1,3.7,4,4.2,4,4.9v8.3
		c0,0.7,0.1,1.2,0.3,1.6c0.2,0.4,0.5,0.6,1.1,0.6c0.5,0,0.9-0.2,1-0.6c0.2-0.4,0.2-0.9,0.2-1.6v-1.8h3.9v1.5c0,1.6-0.4,2.9-1.2,3.9
		c-0.8,0.9-2.1,1.4-4,1.4C3.4,18.1,2,17.6,1.2,16.6z"/>
	<path fill="#111111" d="M15.2,0.2h4.5L23,17.8h-3.6l-0.6-3.7h-2.6l-0.6,3.7h-3.7L15.2,0.2z M18.4,11.8l-0.9-6.9l-0.9,6.9H18.4z"/>
	<path fill="#111111" d="M25.8,3.1h-2.7V0.2h9.3v2.9h-2.7v14.7h-4V3.1z"/>
	<path fill="#111111" d="M39.5,0.2h6.9v1.8H42v5.8h3.6v1.7H42v6.4h4.5v1.8h-7V0.2z"/>
	<path fill="#111111" d="M48.5,0.2h1.7l5.1,11.7V0.2h2.1v17.6h-1.6l-5.1-12v12h-2.1V0.2z"/>
	<path fill="#111111" d="M59.8,0.2h6.9v1.8h-4.4v5.8h3.6v1.7h-3.6v6.4h4.5v1.8h-7V0.2z"/>
	<path fill="#111111" d="M68.8,0.2h3.6c1.8,0,3.1,0.4,4,1.1s1.3,1.9,1.3,3.6c0,2.3-0.7,3.6-2.2,4.1l2.5,8.8h-2.4l-2.3-8.3h-1.9v8.3
		h-2.5V0.2z M72.2,7.8c1.1,0,1.8-0.2,2.3-0.6C75,6.8,75.2,6,75.2,4.9c0-0.7-0.1-1.3-0.2-1.7s-0.4-0.7-0.9-0.9
		c-0.4-0.2-1-0.3-1.7-0.3h-1.1v5.8H72.2z"/>
	<path fill="#111111" d="M80.8,16.5c-0.7-1-1.1-2.5-1.1-4.5V6.2c0-1.4,0.1-2.5,0.4-3.4c0.3-0.9,0.8-1.5,1.5-2
		c0.7-0.5,1.7-0.7,2.9-0.7c1.6,0,2.8,0.4,3.6,1.2c0.7,0.8,1.1,2.1,1.1,3.9v0.7h-2.3V5.3c0-0.8-0.1-1.5-0.2-1.9
		c-0.1-0.5-0.3-0.8-0.7-1C85.7,2.1,85.2,2,84.6,2c-0.7,0-1.2,0.2-1.5,0.5c-0.3,0.3-0.6,0.7-0.7,1.2c-0.1,0.5-0.1,1.2-0.1,2.1v6.5
		c0,1.3,0.2,2.3,0.5,2.9c0.3,0.6,1,0.9,1.9,0.9c0.9,0,1.6-0.3,1.9-1c0.3-0.6,0.5-1.7,0.5-3.1v-1.2h-2.3V9.1h4.5v8.7h-1.6l-0.2-2
		c-0.6,1.5-1.6,2.2-3.2,2.2C82.7,18,81.5,17.5,80.8,16.5z"/>
	<path fill="#111111" d="M94.3,11.6L90.4,0.2h2.3l2.7,8.5l2.7-8.5h2.3l-3.8,11.4v6.2h-2.4V11.6z"/>
</g>
</symbol><symbol id="logo--tablet" viewBox="0 0 172.3 57.1">
<path fill="#FDC305" d="M59.6,21.7C54.2,8.7,39.3,2.6,26.3,8S7.1,28.4,12.6,41.4c3.6,8.5,11.3,14.1,19.8,15.4
	c-0.6-2.1-1.2-4.4-1.7-6.8c1.5,1,3.1,1.8,4.7,2.5c0,0,0,0,0,0c0,0,0.1,2.1,0.3,4.5c1.8,0,3.5-0.1,5.3-0.5c0-0.2,0-0.4,0-0.8
	c0.3-1.9,1.1-5.2,1.2-7.4c1.1-1.1,2.1-2.3,2.9-3.7c0,0,0,0,0,0c0,0.1,0,0.3-0.1,0.4c-0.6,4.2-1.7,8.8-2.4,10
	c-0.2,0.4-0.5,0.9-0.8,1.1c1.4-0.3,2.7-0.8,4.1-1.3C58.9,49.7,65.1,34.7,59.6,21.7z M58.2,25.5c-0.4,0.4-1.3,0.7-1.5-0.6
	c-0.1-1.3-0.2-2.2-0.2-2.2s-1.9-3.4-2.6-3.5c-0.7,0-5.8,3.5-7.1,4.9c-1.2,1.3-1.4,1.2-1.4,3.5c0,1.7,0.2,8.1,0.1,13.1v0v0
	c0,0-2.2,0.6-8.1,2.2c-5.9,1.6-7.8,1.8-7.8,1.8l-1-5.8c0,0,0,0,0,0c0,0,0,0,0,0c0,0,0,0,0,0c0,0,0,0,0,0c0,0,0,0,0,0l0,0l-2.6-13.1
	c0,0-3.8-1.4-5.2-1.8c-1.4-0.4-2.3-0.7-4,0.6c-1.8,1.3-1.7,3.8-1.7,3.8s0.4,1,0.5,1.4c0,0.5-1.2,0.4-2,0.4s-0.9-1.4-0.3-3.1
	c0.6-1.7,1.9-3.7,1.9-3.7s1.2-2.3,2.1-2.9c0,0,0.1-0.3,1.2-0.2c1.1,0.1,7.2,0.4,7.2,0.4l0.1-2.3c6.7-0.9,13.4-1.4,20.2-1.3
	c0,0.6,0,1.2-0.1,1.8c0,0,4.4-2,8.1-2c0,0,0.4,0,0.8,0.4c0.3,0.4,2.4,3,2.6,3.4c0.2,0.4,1.2,1.7,1.8,3C59,23.7,58.6,25.1,58.2,25.5z
	"/>
<path fill="#F06351" d="M56.2,19.4c0.5,0.6,0.9,1.1,1,1.3c0.2,0.4,1.2,1.7,1.8,3c0,0-0.4,1.3-0.9,1.8c-0.4,0.4-1.3,0.7-1.5-0.6
	c-0.1-1.3-0.2-2.2-0.2-2.2s-1.9-3.4-2.6-3.5c-0.7,0-5.8,3.5-7.1,4.9c-1.2,1.3-1.4,1.2-1.4,3.5c0,1.5,0.2,6.6,0.1,11.2
	c1.8,0.2,4.4,0.7,5.2,1.9c0,0-0.3-7.1,7.8-3.4c0,0,0.3-9.7,11.4-7.2C69.9,30.1,64.2,23.1,56.2,19.4z"/>
<path fill="#F06351" d="M45.7,17.1c0.1-8.5-1.4-16.5-1.4-16.5s-0.1-1.3-0.9-0.2c-0.7,1.1-1.2,3.9-1.2,3.9
	c-7.4-0.4-12.8,0.3-12.8,0.3c-0.8-2.7-2.2-3.9-2.9-3.6c-0.7,0.3-0.7,3.3-0.7,3.3l-0.3,14.1C32.2,17.5,39,17.1,45.7,17.1z"/>
<path fill="#E55645" d="M45.2,44.8c0.1-1.1,0.2-2.5,0.2-4c0,0-2.2,0.6-8.1,2.2c-5.9,1.6-7.8,1.8-7.8,1.8l1.1,5c0,0.1,0,0.2,0.1,0.3
	c1.5,1,3.1,1.8,4.7,2.5c4.4-2.2,6.8-4.1,6.8-4.1c0,0,0,0,0,0.1C43.4,47.4,44.4,46.1,45.2,44.8z"/>
<path d="M31.9,14c0-0.1,1,0.7,1.4,0.9s0.6,0.4,0.6,0.6s-0.3,0.3-0.6,0.3s-0.9-0.1-1-0.3c0,0,0.6,0,0.9,0h0.3
	C33.5,15.6,32.1,14.5,31.9,14z"/>
<path d="M39.3,14.1c0,0-1,1.3-1.1,1.3s-0.2,0.3,0.2,0.3s1.1-0.2,1.2-0.3s0.1-0.2-0.1-0.2c-0.2,0-0.7,0-1,0.1L39.3,14.1
	C39.4,14.1,39.4,14,39.3,14.1z"/>
<path d="M36.2,20.2c0,0,0.8-0.4,1.1-1s0-0.9-0.4-1c-0.5-0.1-1.3,0-1.7,0.3c-0.4,0.4-0.3,0.7-0.1,1C35.3,19.7,35.9,20.1,36.2,20.2z"/>
<path fill="#F06351" d="M35.8,21.4c0,0-0.2,0.4-0.5,0.6c-0.2,0.2-0.6,0.4-1,0.4c-0.6,0-1.1-0.2-1.5-0.4c-0.2-0.1-0.4-0.3-0.5-0.4
	c-0.2-0.2-0.4-0.3-0.4-0.3s0.7,4.1,2.6,4.7c1.8,0.6,2.1-0.7,2.2-1.1c0-0.3,0-2.1-0.8-3.2C35.9,21.4,35.9,21.6,35.8,21.4z"/>
<g>
	<path d="M34.2,22.6C34.1,22.6,34.1,22.6,34.2,22.6c-1.3,0-2.3-1.4-2.3-1.4c0-0.1,0-0.2,0-0.2c0.1,0,0.2,0,0.2,0c0,0,1,1.3,2.1,1.3
		c0,0,0,0,0,0c0.6,0,1.1-0.3,1.6-1l0.1-0.2l0.1,0.2c0,0,0.4,0.8,1,0.8c0.5,0,1.1-0.4,1.6-1.3c0-0.1,0.1-0.1,0.2,0
		c0.1,0,0.1,0.1,0,0.2c-0.6,1-1.3,1.4-1.9,1.4c-0.6,0-0.9-0.5-1.1-0.8C35.4,22.3,34.8,22.6,34.2,22.6z"/>
</g>
<path fill="#111111" d="M41.1,29.2l-3.1,1.3l1.1-5.6l-7.5,9.7l3.1-1.3l-1.1,5.6L41.1,29.2z M33.7,33l4.1-5.4l-0.8,4l2-0.8l-4.1,5.4
	l0.8-4L33.7,33z"/>
<path fill="#F06351" d="M45.7,18.9c0,0-2.5,2.2-5.1,5.2c-2.5,2.9-5.3,4.9-5.3,4.9c-0.2-0.5-1.6-1.5-1.6-1.5s-3.1-2.1-5.2-3.8
	c-1.2-1-2.3-2.2-3.1-3c-0.3,0-1.1-0.1-2-0.1c4.7,7,12,8.8,12,8.8c0.9-0.1,3.3-1.9,5.1-3.3s4.8-4.5,5.9-5.9c0.6-0.7,0.9-1.4,1.1-2
	C46.4,18.6,45.7,18.9,45.7,18.9z"/>
<path fill="#F06351" d="M25.8,25.7c0,0-3.8-1.4-5.2-1.8c-1.4-0.4-2.3-0.7-4,0.6c-1.8,1.3-1.7,3.8-1.7,3.8s0.4,1,0.5,1.4
	c0,0.5-1.2,0.4-2,0.4s-0.9-1.4-0.3-3.1c0.6-1.7,1.9-3.7,1.9-3.7c-5.4,2.8-15,9.4-15,9.4s2.9-0.3,8.2,0.2c5.2,0.5,4.9,4.7,4.9,4.7
	s3.5-1,5.6-1.1c2.1-0.1,2.3,2.1,2.3,2.1l0.5,3.8c0,0,0.5-0.6,2.6-2.4c1.9-1.5,3.9-1.4,4.4-1.3l0,0L25.8,25.7z"/>
<g>
	<path fill="#111111" d="M89.6,37.1c-0.7-0.9-1-2.1-1-3.7v-5.3c0-1.6,0.3-2.9,1-3.7c0.7-0.8,1.8-1.3,3.4-1.3c1.5,0,2.6,0.4,3.2,1.1
		c0.6,0.7,0.9,1.8,0.9,3.2v1.3h-2.9v-1.4c0-0.4,0-0.8-0.1-1.1c0-0.3-0.2-0.5-0.3-0.7c-0.2-0.2-0.5-0.3-0.8-0.3
		c-0.6,0-0.9,0.2-1.1,0.5c-0.2,0.4-0.2,0.9-0.2,1.6v6.8c0,0.7,0.1,1.2,0.3,1.6c0.2,0.3,0.5,0.5,1,0.5c0.5,0,0.8-0.2,1-0.5
		c0.1-0.3,0.2-0.9,0.2-1.6v-1.5h2.9v1.2c0,1.4-0.3,2.5-0.9,3.3c-0.6,0.8-1.7,1.2-3.2,1.2C91.3,38.4,90.2,38,89.6,37.1z"/>
	<path fill="#111111" d="M101.1,23.3h3.4l2.9,14.9h-2.8l-0.6-3.3h-2.4l-0.6,3.3h-2.9L101.1,23.3z M103.7,33l-0.9-6l-0.9,6H103.7z"/>
	<path fill="#111111" d="M109.5,25.5h-2.3v-2.2h7.6v2.2h-2.3v12.7h-3.1V25.5z"/>
	<path fill="#444444" d="M120.8,23.3h5.8v1.5h-3.7v4.9h3v1.5h-3v5.5h3.7v1.5h-5.8V23.3z"/>
	<path fill="#444444" d="M128.3,23.3h1.4l4.2,9.9v-9.9h1.7v14.9h-1.3L130.1,28v10.2h-1.8V23.3z"/>
	<path fill="#444444" d="M138,23.3h5.8v1.5h-3.7v4.9h3v1.5h-3v5.5h3.7v1.5H138V23.3z"/>
	<path fill="#444444" d="M145.5,23.3h3c1.5,0,2.6,0.3,3.3,0.9c0.7,0.6,1.1,1.6,1.1,3c0,1.9-0.6,3.1-1.8,3.5l2.1,7.5h-2l-2-7h-1.6v7
		h-2.1V23.3z M148.4,29.7c0.9,0,1.5-0.2,1.9-0.5c0.4-0.4,0.6-1,0.6-1.9c0-0.6-0.1-1.1-0.2-1.4c-0.1-0.3-0.4-0.6-0.7-0.8
		c-0.3-0.2-0.8-0.2-1.5-0.2h-0.9v4.9H148.4z"/>
	<path fill="#444444" d="M155.7,37.1c-0.6-0.9-0.9-2.1-0.9-3.8v-5c0-1.2,0.1-2.1,0.4-2.8c0.2-0.7,0.7-1.3,1.2-1.7
		c0.6-0.4,1.4-0.6,2.4-0.6c1.4,0,2.4,0.3,3,1c0.6,0.7,0.9,1.8,0.9,3.3v0.6h-2v-0.5c0-0.7,0-1.3-0.1-1.6c-0.1-0.4-0.3-0.7-0.5-0.9
		c-0.3-0.2-0.7-0.3-1.2-0.3c-0.6,0-1,0.1-1.3,0.4c-0.3,0.3-0.5,0.6-0.5,1.1c-0.1,0.4-0.1,1-0.1,1.8v5.5c0,1.1,0.1,2,0.4,2.5
		c0.3,0.5,0.8,0.7,1.6,0.7c0.8,0,1.3-0.3,1.6-0.8c0.3-0.5,0.4-1.4,0.4-2.6v-1H159v-1.5h3.8v7.4h-1.3l-0.2-1.7
		c-0.5,1.3-1.4,1.9-2.7,1.9C157.3,38.4,156.3,38,155.7,37.1z"/>
	<path fill="#444444" d="M167.1,32.9l-3.2-9.6h1.9l2.3,7.2l2.2-7.2h2l-3.2,9.6v5.3h-2V32.9z"/>
</g>
</symbol><symbol id="toggle--close" viewBox="0 0 18 18">
<polygon points="18,1.3 16.7,0 9,7.7 1.3,0 0,1.3 7.7,9 0,16.7 1.3,18 9,10.3 16.7,18 18,16.7 10.3,9 "/>
</symbol><symbol id="toggle--open" viewBox="0 0 24 18">
<rect y="16" width="24" height="2"/>
<rect y="8" width="24" height="2"/>
<rect width="24" height="2"/>
</symbol><symbol id="green-circle" viewBox="0 0 34 34">
<circle style="fill:#68B738;" cx="17" cy="17" r="17"/>
</symbol><symbol id="arrow--long" viewBox="0 0 32 11">
<polygon style="fill:#3F4242;" points="25.4,0 32,5.5 25.4,11 25.4,6.6 0,6.6 0,4.4 25.4,4.4 "/>
</symbol><symbol id="arrow" viewBox="0 0 24.2 11">
<polygon style="fill:#3F4242;" points="17.6,0 24.2,5.5 17.6,11 17.6,6.6 0,6.6 0,4.4 17.6,4.4 "/>
</symbol><symbol id="cat-icon--strong" viewBox="0 0 425.2 176.39">
  <title>cat-icon--strong</title>
  <path d="M390.51,142.72a49.37,49.37,0,0,1,14.41-14.59c3.15-2.09,5.15-2.09,6.83,1.75,2.68,6.11,4.78,12.23,2.87,19a7.08,7.08,0,0,0,1.33,6.58c1.77,2.37,3.35,4.89,5,7.36,4,6,5.64,12.41,2.93,19.5a17.14,17.14,0,0,0-.64,9.66,26.53,26.53,0,0,1,0,9.32c-.81,5.09-3.45,8.65-8.57,10a18.29,18.29,0,0,0-10.18,6.24,4.14,4.14,0,0,1-2.71,1.7c-3.74.5-13.26-7.94-13.24-11.76,0-.62,0-1.25,0-1.87.21-11.28-.46-12.38-10.81-16.9a14.12,14.12,0,0,1-5.75-3.9c-2.05-2.58-4.55-2.35-7.16-1.25s-4.4,2.83-4,6.07a200.88,200.88,0,0,1,1.11,22.88,5,5,0,0,0,.74,2.65c9.83,14.15,13.52,30.79,18.42,46.82,3.74,12.22,10.78,18.87,23.42,19.76a55.55,55.55,0,0,1,6,1c5.66,1.06,9,4.62,10.72,10,2.08,6.62,1,8-5.85,8.08s-13.74,0-20.6.05c-2.78,0-5.14-.5-7.22-2.55-3.06-3-7.06-4.56-10.9-6.26-4.22-1.87-8.14-4.22-10.65-8.12-3.52-5.46-8.29-9.7-12.77-14.25-9-9.13-18.25-17.93-26.73-27.54-6.1-6.91-10.1-14.59-10-24,0-3-.74-4.18-3.77-2.69a7.75,7.75,0,0,1-3.13.93c-8.92.15-13.29,5.48-16.45,13.17-2.78,6.75-6.74,13-10.09,19.53a30.34,30.34,0,0,0-3.66,13.89c0,7.41,1.75,10.08,8.74,12.57,4.33,1.55,8.49,3.17,10.86,7.51,2.68,4.91,1.89,6.43-3.6,6.48-7.18.07-14.36,0-21.53.06a6,6,0,0,1-6-3.47c-1.77-3.29-3.89-6.39-5.85-9.58-3.26-5.29-4.58-10.69-2.38-16.91,1.92-5.41,1.06-11.21.26-16.72-1.19-8.2.1-15.52,5.47-21.94,1.75-2.09,2-3.24-1.25-3.84-13.12-2.47-25.52-7.09-37.52-12.85l-.43-.19c-10.12-3.89-12.07-3-14.92,7.19-2.47,8.86-5,17.71-7,26.69-2.13,9.93.36,19.52,3.55,28.9,1.24,3.64,4.95,3.48,7.79,4.32,6.22,1.82,11.59,4.46,14.31,10.9,2.11,5,1.84,5.69-3.46,5.73-5.46.05-10.94-.27-16.38.09-5.17.35-9-1.63-13.25-4.45C181.5,273.21,177.17,258,176,241.06c-.76-10.52-6.31-18.73-13-26.34-1.31-1.48-2.49-2.09-4.39-.88-6.65,4.21-14.13,6.54-21.42,9.3-15.33,5.81-28.63,14.48-38.69,27.66a34.79,34.79,0,0,0-7.07,16.11c-.85,5.67.74,8.06,6.21,9.67,6.06,1.78,8.46,4.72,9.15,10.83.29,2.59-.65,3.92-3.25,3.92q-12.87,0-25.74-.05c-1.9,0-3.12-1.13-4.25-2.52a27.89,27.89,0,0,1-6.19-17.31A160.21,160.21,0,0,1,70.2,238.9c1.19-6.64,4.33-12.09,10.64-15.07,18.74-8.84,28.54-25.4,37.38-42.86,1.78-3.52.2-4.06-2.85-3.78-9.17.82-17,4.89-24.37,10-9.47,6.65-18,14.46-26.43,22.34-9.25,8.64-19.74,14.64-32.7,15.55C10,226.66-1,214,.07,193a30.24,30.24,0,0,1,7.7-19.2c3.79-4.17,8.4-6.45,14.23-4.76,4.85,1.4,6.1,3.84,4.1,8.38-.82,1.84-2.07,3.48-3,5.25a45.11,45.11,0,0,0-3.16,6.24C16.56,198.29,21.06,205,31,205.82c10.53.89,19.09-3.5,27-9.72a152.79,152.79,0,0,0,25.54-26c11.82-15,27.11-23.07,45.71-25.49,7.2-.93,13.69-4.16,20.58-6.09,13.16-3.69,26.48-5.9,40.16-5.56a45,45,0,0,0,18.56-3.38c15.46-6.3,31.63-6.28,47.85-3,12.69,2.56,25.23,5.74,37.82,8.72,7.12,1.68,14.92,1.08,22.2-.51,14-3.05,28.09-5.9,42.49-6.17A62.12,62.12,0,0,1,386.27,134C392.33,136.74,392.33,136.73,390.51,142.72Z" transform="translate(0 -124.4)"/>
</symbol><symbol id="cat-icon--thin" viewBox="0 0 425.2 425.2">
<g>
	<path d="M299.1,0c-0.6,0-1.1,0-1.7,0c-3,1.5-4.7,4.1-6.3,7c-2.6,4.8-4.4,9.9-5.7,15.1c-0.9,3.5-2.8,5.2-6.5,5.9
		c-10.2,1.8-17.6,7.6-22.8,16.4c-3.2,5.5-5.8,11.3-8,17.3c-6.2,16.1-11,32.8-16.8,49.1c-2.8,7.8-2.9,7.7-11.2,7.8
		c-9.9,0.1-9.2-1.5-9.3,9.4c0,3.5,1,5.2,4.7,5c1.1-0.1,2.8-0.6,3.3,0.9c0.4,1.3-1,2.1-1.9,3c-5.2,5.5-11.7,8.7-18.9,10.7
		c-8.3,2.2-16.7,4-24.8,6.7c-20.7,7-39.8,16.7-54.7,33.2c-9.1,10.1-15.3,22-20.7,34.4C81.6,259.6,74,299.5,68,339.8
		c-2.8,18.9-4.8,37.9-6.4,56.9c-0.8,9.5-1.8,19-1.6,28.6c48.4,0,96.9,0,145.3,0c0.5-2-0.3-3.8-1-5.6c-3-7.7-9-11.7-16.7-13.5
		c-3-0.7-3.4-1.6-1.5-4c3.2-4.1,5.3-8.7,6.9-13.6c7.1-21.1,9.9-43.1,13.3-64.9c2.6-16.7,6.5-32.8,15.2-47.5
		c6.4-10.9,14.4-20.3,24.4-27.9c3.6-2.8,3.7-2.8,4.4,1.9c0.4,3.1,0.5,6.3,0.7,9.5c1.3,20.7,1.1,41.4-0.8,62.1
		c-1.5,16.1-2.1,32.2-0.7,48.4c1.6,18.6,5,36.9,9.7,55c19.4,0,38.8,0,58.1,0c-1.4-9.6-9.2-17.6-18.5-19.5c-5.6-1.1-11-0.4-16.4,0.9
		c-2.6,0.6-3.7,0.1-3.9-2.8c-1.7-23.3-0.5-46.5,4.2-69.3c5.5-26.4,10.6-52.9,13.4-79.7c1.1-11.1,4.5-21.2,9.9-30.8
		c5.2-9.3,9.7-19,14.9-28.3c4.1-7.4,4.8-14.9,1.8-22.8c-1.2-3.1-2.3-6.2-3.8-9.2c-4.2-8.6-8.6-17-12.7-25.7c-2.1-4.5-1.7-4.9,3.1-5
		c7.1-0.2,7.1-0.2,7.2-7.2c0-1,0-1.9,0-2.9c0.1-3-1.1-4.7-4.4-4.4c-2.2,0.2-4.4,0-6.6,0c-3,0.1-3.9-1.3-3.1-4.2
		c2.5-10,12.1-18.2,22.4-19.4c9.8-1.2,19.3,0.2,28.8,1.9c2.8,0.5,4.4-0.1,5.5-2.8c1.7-4.4,3.7-8.7,5.6-12.9c0.8-1.8,0.9-3.4-0.4-5
		c-13.9-18-29-34.6-49.6-45.2c-2.2-1.1-3.4-2.5-3.9-4.9c-1.3-6.2-2.8-12.4-5.5-18.2C303.9,4.6,302.2,1.7,299.1,0z"/>
</g>
</symbol><symbol id="stroke" viewBox="0 0 231 231"><title>&#x420;&#x435;&#x441;&#x443;&#x440;&#x441; 2</title><g id="&#x421;&#x43B;&#x43E;&#x439;_2" data-name="&#x421;&#x43B;&#x43E;&#x439; 2"><g id="&#x421;&#x43B;&#x43E;&#x439;_1-2" data-name="&#x421;&#x43B;&#x43E;&#x439; 1"><circle class="cls-1" cx="115.5" cy="115.5" r="115.5"/></g></g></symbol></svg>