<svg id="Layer_1" data-name="Layer 1" xmlns="http://www.w3.org/2000/svg" viewBox="0 0 16 16.01"><title>instagram</title><path d="M11.83,1A3.14,3.14,0,0,1,15,4.18v7.65A3.13,3.13,0,0,1,11.83,15H4.17A3.13,3.13,0,0,1,1,11.83V4.18A3.14,3.14,0,0,1,4.17,1h7.66m0-1H4.17A4.19,4.19,0,0,0,0,4.18v7.65A4.19,4.19,0,0,0,4.17,16h7.66A4.19,4.19,0,0,0,16,11.83V4.18A4.19,4.19,0,0,0,11.83,0Z"/><path d="M8,4.93A3.08,3.08,0,1,1,4.92,8,3.08,3.08,0,0,1,8,4.93m0-1A4.13,4.13,0,1,0,12.12,8,4.13,4.13,0,0,0,8,3.88Z"/><circle cx="12.27" cy="3.74" r="0.93"/></svg>